<svg  width="268" height="268" xmlns="http://www.w3.org/2000/svg" xmlns:svg="http://www.w3.org/2000/svg">
  <g>
   <path d="m219.6,48.1c-22.9,-22.9 -53.4,-35.5 -85.8,-35.5s-62.8,12.6 -85.7,35.5s-35.5,53.4 -35.5,85.8s12.6,62.9 35.5,85.8s53.4,35.5 85.8,35.5s62.9,-12.6 85.8,-35.5s35.5,-53.4 35.5,-85.8s-12.7,-62.9 -35.6,-85.8z" fill="#e55643"/>
   <path d="m133.8,0c-73.9,0 -133.8,59.9 -133.8,133.8s59.9,133.8 133.8,133.8s133.8,-59.9 133.8,-133.8s-59.8,-133.8 -133.8,-133.8zm0,260.1c-69.7,0 -126.3,-56.5 -126.3,-126.3s56.6,-126.2 126.3,-126.2s126.3,56.5 126.3,126.3s-56.5,126.2 -126.3,126.2z" fill="#e55643"/>
  </g>
  <g>
   <path d="m135.001273,206.056c-39.69281,0 -71.981271,-31.520984 -71.981271,-70.259895c0,-26.06023 17.348828,-42.90206 44.203505,-42.90206c9.185059,0 18.795655,2.128883 27.882513,6.163623c10.933035,-4.088807 21.204851,-6.163623 30.540485,-6.163623c25.879214,0 41.329492,16.037585 41.329492,42.90206c0.013093,38.738911 -32.281914,70.259895 -71.974724,70.259895zm-27.771219,-106.403596c-17.375015,0 -37.656777,9.46846 -37.656777,36.143701c0,35.015055 29.34898,63.501536 65.434543,63.501536s65.434543,-28.486481 65.434543,-63.501536c0,-23.30282 -12.353675,-36.143701 -34.782764,-36.143701c-8.910096,0 -18.834935,2.095091 -29.499555,6.210931l-1.263518,0.486602l-1.230785,-0.57446c-8.615494,-4.007707 -17.754725,-6.123073 -26.435686,-6.123073z" fill="#FFF"/>
   <path d="m79.066032,141.939453c-1.806897,0 -3.273364,-1.520631 -3.273364,-3.379179c0,-20.477826 13.374965,-34.406803 34.082264,-35.481382a3.237357,3.342008 0 0 1 3.437032,3.203462a3.283184,3.389317 0 0 1 -3.109696,3.548138c-13.473166,0.702869 -27.856326,8.616907 -27.856326,28.729782a3.289731,3.396075 0 0 1 -3.279911,3.379179zm55.935241,-31.230375a3.273364,3.379179 0 0 1 -3.273364,-3.379179c0,-11.948778 6.068817,-29.716502 22.789159,-29.716502a3.273364,3.379179 0 0 1 0,6.758358c-13.322591,0 -16.242431,16.578253 -16.242431,22.958144a3.273364,3.379179 0 0 1 -3.273364,3.379179z" fill="#FFF"/>
   <path d="m135.001273,109.154656c-1.603948,0 -3.004948,-1.216505 -3.24063,-2.906094c-2.376462,-17.341948 -0.877262,-28.527031 4.726737,-35.184014c3.967317,-4.724093 10.029587,-7.116551 18.029688,-7.116551a3.273364,3.379179 0 0 1 0,6.758358c-6.108097,0 -10.376563,1.567939 -13.093455,4.784918c-4.209546,5.001185 -5.250476,14.746738 -3.18171,29.804361a3.27009,3.3758 0 0 1 -2.782359,3.818473c-0.157121,0.033792 -0.307696,0.04055 -0.458271,0.04055z" fill="#FFF"/>
   <path d="m134.876885,110.709079a3.273364,3.379179 0 0 1 -3.273364,-3.379179c0,-6.386649 -2.919841,-22.958144 -16.242431,-22.958144a3.273364,3.379179 0 0 1 0,-6.758358c16.720342,0 22.789159,17.774483 22.789159,29.716502c0,1.865307 -1.45992,3.379179 -3.273364,3.379179z" fill="#FFF"/>
  </g>
</svg>