<svg width="569" height="285" viewBox="0 0 569 285" fill="none" xmlns="http://www.w3.org/2000/svg">
<path d="M0 0V284.5H569V0H0ZM562.46 277.96H6.54023V6.54023H562.46V277.96Z" fill="#002D5C"/>
<path d="M113.8 57.2271H81.7528L56.9 192.283H80.1178L102.355 74.8857C102.355 74.8857 133.421 67.6915 133.421 97.1225C133.421 126.881 102.028 124.264 102.028 124.264L99.7385 139.634C99.7385 139.634 154.022 144.212 158.274 96.1415C162.525 53.63 113.8 57.2271 113.8 57.2271Z" fill="#002D5C"/>
<path d="M200.131 96.4684H178.221L159.582 192.61H182.799L200.131 96.4684Z" fill="#002D5C"/>
<path d="M149.771 212.23C146.501 212.23 144.212 212.884 142.25 214.52C139.634 216.482 137.999 219.098 137.345 222.695C136.691 226.292 137.345 228.908 139.307 230.87C140.615 232.505 142.904 233.159 146.174 233.159C149.444 233.159 151.733 232.505 153.696 230.87C156.312 228.908 157.947 226.292 158.601 222.695C159.255 219.098 158.601 216.482 156.639 214.52C155.004 212.884 152.715 212.23 149.771 212.23ZM153.696 222.695C153.369 224.984 152.387 226.619 151.079 227.927C149.771 229.235 148.136 229.889 146.501 229.889C144.539 229.889 143.231 229.235 142.577 227.927C141.596 226.619 141.596 224.984 141.923 222.695C142.25 220.406 143.231 218.771 144.539 217.463C145.847 216.155 147.482 215.501 149.117 215.501C151.079 215.501 152.387 216.155 153.042 217.463C154.023 218.771 154.023 220.406 153.696 222.695Z" fill="#002D5C"/>
<path d="M120.34 212.884H109.549L105.952 232.505H115.762C116.743 232.505 118.051 232.505 119.032 232.178C120.013 231.851 120.994 231.524 121.648 231.197C122.302 230.87 122.956 230.216 123.61 229.562C124.591 228.581 124.918 227.6 125.245 226.292C125.572 225.311 125.245 224.33 124.918 223.349C124.591 222.695 123.61 222.041 122.629 221.714C123.283 221.387 123.937 221.06 124.591 220.733C125.572 220.079 125.899 219.098 126.226 217.79C126.553 216.481 126.226 215.5 125.899 214.846C124.918 213.538 123.283 212.884 120.34 212.884ZM120.667 226.292C120.34 227.6 119.686 228.254 118.705 228.908C118.051 229.235 117.397 229.235 116.416 229.235H111.184L112.165 224.003H117.724C118.705 224.003 119.359 224.003 120.013 224.33C120.667 224.657 120.994 225.311 120.667 226.292ZM120.667 220.079C120.013 220.406 119.032 220.406 118.378 220.406H112.819L113.473 216.154H118.378C119.359 216.154 120.34 216.154 120.994 216.481C121.648 216.809 121.975 217.463 121.975 218.444C121.648 219.098 121.321 219.752 120.667 220.079Z" fill="#002D5C"/>
<path d="M85.6771 212.884L74.2317 232.505H79.1369L81.4259 228.581H89.6012L90.2553 232.505H95.1604L90.9093 212.884H85.6771ZM83.388 224.984L87.6392 217.136L88.9472 224.984H83.388Z" fill="#002D5C"/>
<path d="M189.667 80.1179C196.534 82.0799 204.055 77.8288 206.344 70.3075C208.633 62.7863 205.036 54.938 198.169 52.6489C191.302 50.3599 183.78 54.938 181.491 62.4593C179.202 69.9805 182.799 78.1558 189.667 80.1179Z" fill="#002D5C"/>
<path d="M57.2269 212.884H52.6487L49.0516 232.505H64.4211L65.0752 228.908H54.2838L57.2269 212.884Z" fill="#002D5C"/>
<path d="M283.846 232.505H288.424L292.348 212.884H287.77L283.846 232.505Z" fill="#002D5C"/>
<path d="M331.263 232.505H347.94L348.594 228.908H336.495L337.149 224.003H347.94L348.594 220.406H337.803L338.784 216.154H350.229L350.883 212.884H334.86L331.263 232.505Z" fill="#002D5C"/>
<path d="M408.764 57.227L383.912 192.283C383.912 192.283 378.352 212.23 366.907 212.23L364.945 228.254C364.945 228.254 397.973 229.889 406.802 192.283L432.636 57.227H408.764Z" fill="#002D5C"/>
<path d="M360.694 171.354C360.694 171.354 349.902 179.529 333.879 179.529C317.855 179.529 314.585 167.43 314.585 158.928V151.079C314.585 151.079 376.39 156.638 377.698 117.07C377.698 117.07 378.679 93.8523 350.229 93.8523C326.357 93.8523 290.713 112.819 290.713 157.619C290.713 157.619 289.732 193.918 326.684 193.918C347.94 193.918 365.926 182.472 365.926 182.472L360.694 171.354ZM348.267 106.933C358.405 106.933 359.386 115.435 358.405 119.359C357.424 123.61 354.153 140.615 316.874 137.999C317.201 137.999 323.087 106.933 348.267 106.933Z" fill="#002D5C"/>
<path d="M491.825 94.1794C467.953 94.1794 432.309 113.146 432.309 157.947C432.309 157.947 431.328 194.245 468.28 194.245C489.536 194.245 507.522 182.8 507.522 182.8L502.29 171.027C502.29 171.027 491.498 179.202 475.802 179.202C459.778 179.202 456.508 167.103 456.508 158.601V150.752C456.508 150.752 518.313 156.312 519.621 116.743C519.294 117.07 520.602 94.1794 491.825 94.1794ZM500.001 119.032C499.02 123.283 495.749 140.288 458.47 137.672C458.47 137.672 464.356 106.606 489.863 106.606C500.001 106.933 500.655 115.108 500.001 119.032Z" fill="#002D5C"/>
<path d="M255.069 57.554H230.87L206.344 192.61H214.52H229.562H277.96L280.903 175.278H232.832L255.069 57.554Z" fill="#002D5C"/>
<path d="M227.273 216.481H234.14L230.87 232.505H235.448L238.718 216.481H245.259L245.913 212.884H227.927L227.273 216.481Z" fill="#002D5C"/>
<path d="M208.306 212.884L196.861 232.505H201.766L204.055 228.581H212.23L212.884 232.505H217.789L213.538 212.884H208.306ZM205.69 224.984L209.941 217.136L211.249 224.984H205.69Z" fill="#002D5C"/>
<path d="M265.86 212.23C262.59 212.23 260.301 212.884 258.339 214.52C255.723 216.482 254.088 219.098 253.434 222.695C252.78 226.292 253.434 228.908 255.396 230.87C256.704 232.505 258.993 233.159 262.263 233.159C265.533 233.159 267.822 232.505 269.785 230.87C272.401 228.908 274.036 226.292 274.69 222.695C275.344 219.098 274.69 216.482 272.728 214.52C271.42 212.884 269.131 212.23 265.86 212.23ZM269.785 222.695C269.458 224.984 268.476 226.619 267.168 227.927C265.86 229.235 264.225 229.889 262.59 229.889C260.628 229.889 259.32 229.235 258.666 227.927C257.685 226.619 257.685 224.984 258.012 222.695C258.339 220.406 259.32 218.771 260.628 217.463C261.936 216.155 263.571 215.501 265.206 215.501C267.168 215.501 268.476 216.155 269.131 217.463C270.112 218.771 270.439 220.406 269.785 222.695Z" fill="#002D5C"/>
<path d="M188.032 214.846C187.705 214.192 187.051 213.865 186.07 213.538C185.416 213.211 184.107 213.211 182.472 212.884H171.681L168.084 232.505H172.662L173.97 224.657H178.875C180.183 224.657 181.164 224.984 181.491 225.311C181.818 225.638 182.145 226.619 181.818 227.927L181.491 229.889V231.524V232.505H186.397V231.851C186.07 231.524 185.743 231.197 185.743 230.87C185.743 230.543 185.743 229.889 186.07 228.908L186.397 227.6C186.724 226.292 186.724 225.311 186.397 224.657C186.07 224.003 185.416 223.349 184.434 223.022C185.743 222.695 186.724 222.041 187.378 221.06C188.032 220.079 188.359 219.098 188.686 218.444C188.686 217.79 188.686 217.136 188.686 216.481C188.686 215.827 188.359 215.173 188.032 214.846ZM184.107 219.098C183.78 220.079 183.453 221.06 182.145 221.387C181.491 221.714 180.837 221.714 179.856 221.714H174.624L175.605 216.481H180.837C181.818 216.481 182.472 216.482 183.126 216.809C184.107 217.136 184.434 217.79 184.107 219.098Z" fill="#002D5C"/>
<path d="M320.798 214.846C320.471 214.192 319.817 213.865 318.836 213.538C318.182 213.211 316.874 213.211 315.239 212.884H304.448L300.85 232.505H305.429L306.737 224.657H311.642C312.95 224.657 313.931 224.984 314.258 225.311C314.585 225.638 314.912 226.619 314.585 227.927L314.258 229.889V231.524V232.505H319.163V231.851C318.836 231.524 318.509 231.197 318.509 230.87C318.509 230.543 318.509 229.889 318.836 228.908L319.163 227.6C319.49 226.292 319.49 225.311 319.163 224.657C318.836 224.003 318.182 223.349 317.201 223.022C318.509 222.695 319.49 222.041 320.144 221.06C320.798 220.079 321.125 219.098 321.452 218.444C321.452 217.79 321.452 217.136 321.452 216.481C321.452 215.827 321.125 215.173 320.798 214.846ZM316.874 219.098C316.547 220.079 316.22 221.06 314.912 221.387C314.258 221.714 313.604 221.714 312.623 221.714H307.391L308.372 216.481H313.931C314.912 216.481 315.566 216.482 316.22 216.809C316.874 217.136 317.201 217.79 316.874 219.098Z" fill="#002D5C"/>
</svg>
