<svg width="50" height="50" viewBox="0 0 50 50" fill="none" xmlns="http://www.w3.org/2000/svg">
<path d="M28.25 15.4C29.6 14.45 32.4 15.5 34.4 17.8C36.4 20.1 36.95 22.75 35.6 23.75C34.75 24.3 33.55 24.1 32.8 23.25C32.45 22.85 32.2 22.35 32.2 21.9C32.2 21.55 32.15 21.25 32.05 20.95C31.8 20.3 31.3 19.7 30.7 19.3C30.3 19.05 29.9 18.9 29.45 18.8C28.95 18.7 28.55 18.45 28.2 18.05C27.45 17.15 27.5 16.05 28.25 15.4ZM25 1.65C12.1 1.65 1.65 12.1 1.65 25C1.65 37.9 12.1 48.35 25 48.35C37.9 48.35 48.35 37.9 48.35 25C48.35 12.1 37.9 1.65 25 1.65ZM25 0C38.8 0 50 11.2 50 25C50 38.8 38.8 50 25 50C11.2 50 0 38.8 0 25C0 11.2 11.2 0 25 0ZM22.55 6.75C25 7 27.05 8.35 27.05 9.7C27 10.5 26.3 11.05 25.4 10.95C24.95 10.9 24.6 10.75 24.3 10.45C24.05 10.2 23.75 10 23.4 9.85C22.85 9.6 22.25 9.55 21.7 9.7C21.45 9.75 21.2 9.9 21 10.05C20.7 10.3 20.25 10.35 19.85 10.3C18.95 10.2 18.25 9.5 18.2 8.7C18.1 7.35 20.1 6.45 22.55 6.75ZM24.7 21.75C24.9 22 25.15 22.2 25.4 22.35C25.8 22.6 26.05 23 26.2 23.55C26.5 24.55 26.05 25.7 25.15 26.1C23.65 26.7 21.75 24.9 20.95 22C20.15 19.2 20.7 16.35 22.15 15.75C23.05 15.45 24 16 24.3 17C24.45 17.5 24.45 18 24.3 18.45C24.15 18.85 24.05 19.25 24.05 19.7C24.05 20.5 24.3 21.2 24.7 21.75ZM14.2 11.7C15 11.45 15.95 11.9 16.35 12.7C16.55 13.1 16.65 13.55 16.55 13.95C16.5 14.25 16.5 14.55 16.5 14.8C16.55 15.4 16.8 15.95 17.25 16.45C17.5 16.7 17.8 16.95 18.15 17.1C18.55 17.3 18.8 17.6 19 18C19.4 18.85 19.15 19.75 18.35 20.05C17.05 20.55 15 19.05 13.85 16.7C12.75 14.5 12.9 12.2 14.2 11.7ZM8.95 26.2C8.8 26.5 8.75 26.85 8.75 27.15C8.75 27.6 8.45 28.05 8.1 28.45C7.3 29.25 6.1 29.35 5.3 28.8C3.95 27.8 4.65 25.15 6.8 22.95C8.95 20.8 11.8 19.9 13.1 20.9C13.85 21.55 13.8 22.7 13.05 23.45C12.65 23.85 12.25 24.1 11.75 24.15C11.3 24.2 10.9 24.35 10.5 24.55C9.75 25 9.2 25.55 8.95 26.2ZM18.95 41.6C18.3 42.45 17.2 42.5 16.35 41.65C15.95 41.25 15.65 40.75 15.6 40.2C15.5 39.7 15.35 39.2 15.15 38.8C14.75 38.05 14.2 37.5 13.5 37.2C13.15 37.05 12.85 37 12.5 37C12.05 37 11.55 36.7 11.15 36.3C10.3 35.45 10.15 34.05 10.7 33.1C11.7 31.6 14.4 32.3 16.7 34.6C19 36.9 19.95 40.1 18.95 41.6ZM21 33.35C20.55 33.05 20.25 32.7 20.05 32.25C19.9 31.85 19.7 31.45 19.4 31.1C18.9 30.55 18.3 30.15 17.6 30C17.25 29.95 16.95 29.95 16.65 30C16.2 30.1 15.7 29.9 15.25 29.6C14.35 29 13.95 27.85 14.35 26.95C15.1 25.5 17.8 25.65 20.3 27.25C22.8 28.85 24.3 31.4 23.55 32.85C23.05 33.7 21.9 33.95 21 33.35ZM28.7 43.8C27.6 44.75 25.45 43.7 23.95 41.55C22.45 39.4 22.15 36.8 23.25 35.9C23.9 35.4 24.9 35.6 25.4 36.35C25.65 36.75 25.8 37.15 25.8 37.55C25.8 37.95 25.8 38.3 25.95 38.7C26.15 39.3 26.55 39.85 27.05 40.2C27.3 40.35 27.55 40.45 27.85 40.55C28.25 40.65 28.6 40.95 28.85 41.35C29.45 42.15 29.35 43.25 28.7 43.8ZM28.85 26.15C29.15 25.5 29.9 25.3 30.6 25.65C30.95 25.85 31.2 26.05 31.35 26.4C31.5 26.7 31.65 26.95 31.9 27.15C32.3 27.5 32.75 27.75 33.25 27.8C33.5 27.85 33.7 27.8 33.95 27.75C34.25 27.65 34.65 27.75 35 27.95C35.7 28.3 36.05 29.1 35.85 29.8C35.4 30.9 33.5 31 31.55 30C29.7 29 28.45 27.3 28.85 26.15ZM36.8 41.55C36.05 42.1 35.05 41.85 34.5 41C34.25 40.6 34.1 40.15 34.1 39.65C34.15 39.25 34.1 38.8 34 38.4C33.8 37.75 33.4 37.15 32.9 36.75C32.65 36.55 32.35 36.45 32.05 36.4C31.65 36.3 31.25 35.95 31 35.55C30.45 34.7 30.55 33.5 31.25 32.9C32.45 31.9 34.7 33.05 36.25 35.45C37.7 37.75 38 40.55 36.8 41.55ZM38.55 14.4C38.05 15.25 36.9 15.4 36 14.8C35.55 14.5 35.25 14.1 35.1 13.65C34.95 13.25 34.75 12.8 34.5 12.45C34.05 11.85 33.4 11.45 32.7 11.3C32.35 11.2 32.05 11.2 31.7 11.25C31.25 11.3 30.75 11.15 30.3 10.8C29.4 10.15 29.05 8.95 29.5 8.1C30.3 6.65 33.05 6.9 35.55 8.65C38 10.3 39.35 12.9 38.55 14.4ZM43.95 30.15C43.05 30.55 42.05 30.1 41.65 29.05C41.45 28.55 41.4 28.05 41.55 27.55C41.7 27.15 41.75 26.7 41.7 26.25C41.65 25.5 41.35 24.8 40.85 24.3C40.6 24.05 40.35 23.85 40.05 23.7C39.65 23.5 39.3 23.05 39.1 22.55C38.7 21.5 39.1 20.35 39.95 19.85C41.45 19.1 43.6 20.8 44.7 23.7C45.75 26.45 45.45 29.4 43.95 30.15Z" fill="white"/>
</svg>
