<svg width="51" height="50" viewBox="0 0 51 50" fill="none" xmlns="http://www.w3.org/2000/svg">
<path d="M22.3251 11.9646H19.0177V7.00349H20.6714C20.8907 7.00349 21.101 6.91637 21.2561 6.76131C21.4111 6.60624 21.4983 6.39593 21.4983 6.17663V1.2155C21.4983 0.996201 21.4111 0.785887 21.2561 0.630822C21.101 0.475756 20.8907 0.388641 20.6714 0.388641H4.13428C3.91498 0.388641 3.70467 0.475756 3.5496 0.630822C3.39454 0.785887 3.30742 0.996201 3.30742 1.2155V6.17663C3.30742 6.39593 3.39454 6.60624 3.5496 6.76131C3.70467 6.91637 3.91498 7.00349 4.13428 7.00349H5.78799V11.9646H2.48057C1.82328 11.9666 1.19348 12.2286 0.72871 12.6933C0.263938 13.1581 0.00196303 13.7879 0 14.4452V47.5194C0.00196303 48.1767 0.263938 48.8065 0.72871 49.2713C1.19348 49.7361 1.82328 49.998 2.48057 50H22.3251C22.9824 49.998 23.6122 49.7361 24.077 49.2713C24.5417 48.8065 24.8037 48.1767 24.8057 47.5194V14.4452C24.8037 13.7879 24.5417 13.1581 24.077 12.6933C23.6122 12.2286 22.9824 11.9666 22.3251 11.9646ZM4.96114 5.34978V2.04235H19.8445V5.34978H4.96114ZM17.364 7.00349V11.9646H7.4417V7.00349H17.364ZM23.152 47.5194C23.152 47.7387 23.0649 47.949 22.9098 48.1041C22.7547 48.2592 22.5444 48.3463 22.3251 48.3463H2.48057C2.26127 48.3463 2.05096 48.2592 1.89589 48.1041C1.74083 47.949 1.65371 47.7387 1.65371 47.5194V39.2509H23.152V47.5194ZM23.152 37.5972H1.65371V24.3675H23.152V37.5972ZM23.152 22.7138H1.65371V14.4452C1.65371 14.2259 1.74083 14.0156 1.89589 13.8605C2.05096 13.7055 2.26127 13.6183 2.48057 13.6183H22.3251C22.5444 13.6183 22.7547 13.7055 22.9098 13.8605C23.0649 14.0156 23.152 14.2259 23.152 14.4452V22.7138Z" fill="white"/>
<path d="M12.4029 35.9435C14.3758 35.941 16.2672 35.1562 17.6623 33.7612C19.0574 32.3661 19.8422 30.4747 19.8446 28.5017V26.848C19.8446 26.6287 19.7575 26.4184 19.6024 26.2634C19.4473 26.1083 19.237 26.0212 19.0177 26.0212C17.6492 26.023 16.3077 26.4021 15.1407 27.1169C13.9736 27.8317 13.0263 28.8545 12.4029 30.0728C11.7794 28.8545 10.8321 27.8317 9.66511 27.1169C8.49809 26.4021 7.15657 26.023 5.78804 26.0212C5.56874 26.0212 5.35843 26.1083 5.20336 26.2634C5.0483 26.4184 4.96118 26.6287 4.96118 26.848V28.5017C4.96359 30.4747 5.7484 32.3661 7.14346 33.7612C8.53853 35.1562 10.43 35.941 12.4029 35.9435ZM18.1909 27.7336V28.5017C18.1891 29.8932 17.687 31.2375 16.7762 32.2894C15.8654 33.3412 14.6066 34.0304 13.2297 34.231V33.4629C13.2315 32.0715 13.7336 30.7271 14.6444 29.6753C15.5552 28.6234 16.814 27.9342 18.1909 27.7336ZM6.61489 27.7336C7.99176 27.9342 9.25052 28.6234 10.1613 29.6753C11.0722 30.7271 11.5743 32.0715 11.576 33.4629V34.231C10.1992 34.0304 8.9404 33.3412 8.02957 32.2894C7.11875 31.2375 6.61662 29.8932 6.61489 28.5017V27.7336Z" fill="white"/>
<path d="M30.5937 11.9646C30.8129 11.9646 31.0232 11.8774 31.1782 11.7223L35.8558 7.04483C36.0108 6.88977 36.0979 6.67949 36.0979 6.46024C36.0979 6.24099 36.0108 6.03071 35.8558 5.87565L31.1782 1.19813C30.4018 0.428411 29.352 -0.00238422 28.2587 9.92598e-06C27.1653 0.00240408 26.1174 0.437793 25.3443 1.2109C24.5712 1.98401 24.1358 3.03189 24.1334 4.12523C24.131 5.21857 24.5618 6.26834 25.3316 7.04483L30.0091 11.7223C30.1641 11.8774 30.3744 11.9646 30.5937 11.9646ZM26.5007 2.36813C26.7311 2.13774 27.0045 1.95499 27.3055 1.8303C27.6065 1.70561 27.9291 1.64144 28.2549 1.64144C28.5807 1.64144 28.9033 1.70561 29.2043 1.8303C29.5053 1.95499 29.7787 2.13774 30.0091 2.36813L34.102 6.46024L30.5937 9.96859L26.5007 5.87565C26.0357 5.41048 25.7744 4.77965 25.7744 4.12189C25.7744 3.46413 26.0357 2.8333 26.5007 2.36813Z" fill="white"/>
<path d="M47.7178 40.5986L38.3578 31.2469C37.5781 30.4938 36.5337 30.0771 35.4498 30.0865C34.3658 30.0959 33.3288 30.5307 32.5623 31.2973C31.7958 32.0638 31.361 33.1007 31.3516 34.1847C31.3421 35.2687 31.7588 36.313 32.5119 37.0928L37.1506 41.7314H30.5936C29.4972 41.7314 28.4456 42.167 27.6703 42.9423C26.8949 43.7177 26.4594 44.7692 26.4594 45.8657C26.4594 46.9622 26.8949 48.0138 27.6703 48.7891C28.4456 49.5644 29.4972 50 30.5936 50H43.8233C44.8597 49.9969 45.8569 49.604 46.6168 48.8993C47.3767 48.1945 47.8435 47.2297 47.9245 46.1965C48.6042 45.4101 48.9608 44.3955 48.9224 43.3569C48.884 42.3182 48.4536 41.3327 47.7178 40.5986ZM36.3816 48.3463H30.5936C29.9357 48.3463 29.3048 48.0849 28.8396 47.6197C28.3744 47.1545 28.1131 46.5236 28.1131 45.8657C28.1131 45.2078 28.3744 44.5769 28.8396 44.1117C29.3048 43.6465 29.9357 43.3852 30.5936 43.3852H36.3816V48.3463ZM33.6861 35.9269C33.2215 35.4618 32.9606 34.8313 32.9606 34.174C32.9606 33.5166 33.2215 32.8862 33.6861 32.421C33.916 32.1904 34.1893 32.0075 34.4901 31.8826C34.7909 31.7578 35.1133 31.6935 35.439 31.6935C35.7647 31.6935 36.0872 31.7578 36.388 31.8826C36.6888 32.0075 36.962 32.1904 37.1919 32.421L41.2849 36.514L37.779 40.0198L33.6861 35.9269ZM43.8233 48.3463H38.0353V43.3852H43.8233C44.4812 43.3852 45.1122 43.6465 45.5774 44.1117C46.0425 44.5769 46.3039 45.2078 46.3039 45.8657C46.3039 46.5236 46.0425 47.1545 45.5774 47.6197C45.1122 48.0849 44.4812 48.3463 43.8233 48.3463ZM47.263 43.5836C46.8883 43.0138 46.3777 42.5462 45.7772 42.2228C45.1768 41.8995 44.5053 41.7306 43.8233 41.7314H39.4906L38.9449 41.1857L42.4507 37.6798L46.5437 41.7728C46.7757 42.0017 46.9596 42.2747 47.0846 42.5757C47.2096 42.8768 47.273 43.1998 47.2713 43.5257C47.2713 43.5423 47.263 43.5671 47.263 43.5836Z" fill="white"/>
<path d="M49.0855 14.4278C48.3102 13.6525 47.2586 13.2169 46.1622 13.2169C45.0657 13.2169 44.0142 13.6525 43.2388 14.4278L38.5613 19.1053C38.4063 19.2604 38.3192 19.4707 38.3192 19.6899C38.3192 19.9092 38.4063 20.1195 38.5613 20.2745L43.2388 24.952C43.3939 25.1071 43.6042 25.1941 43.8234 25.1941C44.0427 25.1941 44.2529 25.1071 44.408 24.952L49.0855 20.2745C49.8596 19.4986 50.2944 18.4472 50.2944 17.3512C50.2944 16.2551 49.8596 15.2038 49.0855 14.4278ZM47.9164 19.1053L43.8234 23.1983L40.3151 19.6899L44.408 15.5978C44.8805 15.1464 45.5087 14.8945 46.1622 14.8945C46.8156 14.8945 47.4439 15.1464 47.9164 15.5978C48.3814 16.063 48.6426 16.6938 48.6426 17.3516C48.6426 18.0093 48.3814 18.6402 47.9164 19.1053Z" fill="white"/>
<path d="M35.5548 10.3109H37.2085V11.9646H35.5548V10.3109Z" fill="white"/>
<path d="M33.0742 12.7915H34.7279V14.4452H33.0742V12.7915Z" fill="white"/>
<path d="M36.3816 14.4452H38.0353V16.0989H36.3816V14.4452Z" fill="white"/>
<path d="M37.2085 21.8869H38.8622V23.5406H37.2085V21.8869Z" fill="white"/>
<path d="M39.6891 24.3675H41.3428V26.0212H39.6891V24.3675Z" fill="white"/>
<path d="M37.2085 26.8481H38.8622V28.5018H37.2085V26.8481Z" fill="white"/>
<path d="M40.516 28.5017H42.1697V30.1555H40.516V28.5017Z" fill="white"/>
<path d="M33.0742 16.9258H34.7279V18.5795H33.0742V16.9258Z" fill="white"/>
</svg>
