<svg width="69" height="50" viewBox="0 0 69 50" fill="none" xmlns="http://www.w3.org/2000/svg">
<path d="M11.6921 22.8524L13.1111 24.2714L15.7311 21.6519L28.3429 34.2638L17.2264 45.3804C15.5419 47.0648 13.3024 47.9925 10.9202 47.9925C8.53799 47.9925 6.29848 47.0648 4.614 45.3804C2.93006 43.6959 2.00237 41.4564 2.00237 39.0747C2.00237 36.6925 2.92953 34.453 4.614 32.7685L11.2186 26.1639L9.79912 24.7449L3.19503 31.349C-1.06501 35.6091 -1.06501 42.5403 3.19503 46.7999C5.25842 48.8632 8.00229 50 10.9202 50C13.8386 50 16.582 48.8632 18.6459 46.7999L31.1814 34.2638L15.7311 18.8135L11.6921 22.8524Z" fill="white"/>
<path d="M65.3094 31.349L52.7733 18.8135L47.1152 24.4716L48.5342 25.8911L52.7733 21.6519L63.8899 32.7685C65.5744 34.453 66.502 36.6925 66.502 39.0742C66.502 41.4564 65.5744 43.6959 63.8899 45.3804C62.2054 47.0648 59.9659 47.9925 57.5837 47.9925C55.2015 47.9925 52.9625 47.0648 51.278 45.3804L40.1615 34.2638L46.6417 27.7836L45.2227 26.3641L37.323 34.2638L49.8585 46.7999C51.9219 48.8632 54.6658 50 57.5837 50C60.5021 50 63.246 48.8632 65.3094 46.7999C69.5689 42.5403 69.5689 35.6091 65.3094 31.349Z" fill="white"/>
<path d="M51.0826 6.21681V2.70205H47.5678C42.3471 2.70205 37.8368 5.8034 35.7822 10.2605C33.7272 4.29663 28.0581 0 21.4049 0H17.4219V3.98357C17.4219 12.3662 24.2413 19.1856 32.6234 19.1856H34.5995V32.0353H36.607V19.1856H38.1143C45.265 19.1856 51.0826 13.3676 51.0826 6.21681ZM47.5678 4.70952H49.0756V6.21681C49.0756 12.2612 44.1581 17.1782 38.1143 17.1782H38.0259L42.609 12.5956L41.1895 11.1762L36.607 15.7587V15.6709C36.607 9.62652 41.524 4.70952 47.5678 4.70952ZM19.4288 3.98357V2.00746H21.4049C28.6806 2.00746 34.5995 7.92637 34.5995 15.2021V15.7587L30.0165 11.1762L28.5975 12.5951L33.18 17.1782H32.6234C25.3482 17.1782 19.4288 11.2593 19.4288 3.98357Z" fill="white"/>
<path d="M10.9207 46.6547C8.89602 46.6547 6.99256 45.866 5.56104 44.4345L6.98001 43.015C8.03262 44.0676 9.43226 44.6472 10.9207 44.6472C12.4092 44.6472 13.8083 44.0676 14.861 43.015L19.5904 38.2856L21.0099 39.7051L16.2805 44.4345C14.8489 45.866 12.9455 46.6547 10.9207 46.6547ZM21.9558 38.7586L20.5369 37.3396L21.9558 35.9201L23.3753 37.3396L21.9558 38.7586ZM24.3218 36.3931L22.9023 34.9736L24.3218 33.5546L25.7408 34.9741L24.3218 36.3931Z" fill="white"/>
<path d="M57.5837 46.6546C55.559 46.6546 53.6555 45.866 52.224 44.4344L53.6435 43.0149C54.6961 44.0676 56.0952 44.6472 57.5837 44.6472C59.0722 44.6472 60.4718 44.0676 61.5244 43.0149C62.2572 42.2827 62.7694 41.3634 63.0051 40.3578L64.9593 40.8167C64.6378 42.186 63.9411 43.4372 62.9439 44.4344C61.5119 45.866 59.6084 46.6546 57.5837 46.6546ZM65.1573 39.2911L63.1509 39.2347C63.1525 39.1814 63.1535 39.128 63.1535 39.0747C63.1535 38.5584 63.0824 38.0457 62.9429 37.5507L64.8746 37.0056C65.0643 37.6777 65.1605 38.3739 65.161 39.0747C65.1605 39.1469 65.1594 39.219 65.1573 39.2911ZM62.5263 36.4992C62.2655 35.9974 61.9284 35.538 61.5244 35.134L62.9439 33.7145C63.4927 34.2638 63.9516 34.8889 64.3075 35.5736L62.5263 36.4992Z" fill="white"/>
<path d="M29.5237 9.99135C28.9686 9.13056 28.2845 8.36593 27.489 7.71785L28.7564 6.16142C29.716 6.94277 30.5418 7.86576 31.2108 8.90478L29.5237 9.99135ZM26.5033 7.01229C25.9896 6.69138 25.4439 6.41804 24.8805 6.19958L25.6059 4.32799C26.2864 4.59192 26.9465 4.92224 27.5669 5.31056L26.5033 7.01229ZM23.7265 5.83477C23.1412 5.68948 22.5375 5.59906 21.9318 5.56665L22.0399 3.56232C22.7722 3.60204 23.5018 3.71075 24.21 3.88636L23.7265 5.83477Z" fill="white"/>
<path d="M44.2809 13.3378L42.9659 11.8211C44.3426 10.6274 45.2306 8.98367 45.4668 7.19153L47.457 7.4539C47.1565 9.73314 46.0286 11.8221 44.2809 13.3378Z" fill="white"/>
</svg>
