<svg width="52" height="50" viewBox="0 0 52 50" fill="none" xmlns="http://www.w3.org/2000/svg">
<path d="M51 31.6667H47.266L51.973 15.1925C52.0335 14.9793 51.9908 14.7549 51.8542 14.5677C51.7175 14.3806 51.498 14.2458 51.243 14.1925L47.243 13.3592C46.9892 13.3061 46.7205 13.3381 46.4947 13.4483C46.2689 13.5584 46.1038 13.7379 46.035 13.9483L40.236 31.6667H37.974C38.6358 30.9497 38.9963 30.0712 39 29.1667V26.6667H36C34.8256 26.669 33.6897 27.0157 32.7914 27.6461C31.8931 28.2765 31.2897 29.1502 31.087 30.1142C30.703 29.6503 30.2089 29.2569 29.6353 28.9585C29.0616 28.6601 28.4205 28.4629 27.7518 28.3792C27.083 28.2954 26.4008 28.3269 25.7472 28.4717C25.0936 28.6165 24.4826 28.8714 23.952 29.2208C26 21.9242 26 21.8333 26 21.6667C25.9998 21.2043 25.8842 20.747 25.6605 20.3239C25.4368 19.9008 25.1099 19.5211 24.7006 19.2089C24.2913 18.8968 23.8085 18.659 23.283 18.5107C22.7575 18.3624 22.2007 18.3068 21.648 18.3475C21.2413 17.3686 20.4786 16.5196 19.466 15.9188C18.4533 15.3179 17.2411 14.995 15.998 14.995C14.7549 14.995 13.5427 15.3179 12.53 15.9188C11.5174 16.5196 10.7547 17.3686 10.348 18.3475C9.79564 18.3073 9.23927 18.3632 8.71423 18.5118C8.18919 18.6603 7.70694 18.8981 7.29809 19.2103C6.88923 19.5224 6.56271 19.9019 6.33925 20.3248C6.11578 20.7476 6.00026 21.2046 6 21.6667C6 21.8925 6.006 22.27 7.7 26.725C7.4686 26.6919 7.23469 26.6724 7 26.6667H4V29.1667C4.00368 30.0712 4.36419 30.9497 5.026 31.6667H1C0.734784 31.6667 0.48043 31.7545 0.292893 31.9107C0.105357 32.067 0 32.279 0 32.5C0 40.2558 8.726 45.1667 11 46.3125V49.1667C11 49.3877 11.1054 49.5996 11.2929 49.7559C11.4804 49.9122 11.7348 50 12 50H40C40.2652 50 40.5196 49.9122 40.7071 49.7559C40.8947 49.5996 41 49.3877 41 49.1667V46.3125C43.274 45.1667 52 40.2558 52 32.5C52 32.279 51.8947 32.067 51.7071 31.9107C51.5196 31.7545 51.2652 31.6667 51 31.6667ZM47.707 15.1733L49.798 15.6083L45.21 31.6667H42.31L47.707 15.1733ZM33 30.8333C33 30.1703 33.3161 29.5344 33.8787 29.0656C34.4413 28.5967 35.2044 28.3333 36 28.3333H37V29.1667C37 29.8297 36.6839 30.4656 36.1213 30.9344C35.5587 31.4033 34.7957 31.6667 34 31.6667H33V30.8333ZM27 30C27.6203 30.0006 28.2251 30.1611 28.7316 30.4595C29.2381 30.7579 29.6214 31.1796 29.829 31.6667H24.171C24.3786 31.1796 24.7619 30.7579 25.2684 30.4595C25.7749 30.1611 26.3797 30.0006 27 30ZM21.829 31.6667H16.171C16.3776 31.1789 16.7606 30.7566 17.2673 30.4578C17.7739 30.1591 18.3793 29.9986 19 29.9986C19.6207 29.9986 20.2261 30.1591 20.7328 30.4578C21.2394 30.7566 21.6224 31.1789 21.829 31.6667ZM8 21.6667C7.99279 21.3939 8.06748 21.1239 8.21729 20.8813C8.36709 20.6387 8.58727 20.4312 8.85781 20.2775C9.12835 20.1238 9.44067 20.0289 9.76641 20.0014C10.0921 19.9739 10.421 20.0147 10.723 20.12C10.8619 20.1642 11.0108 20.182 11.159 20.1721C11.3072 20.1623 11.4509 20.1251 11.5796 20.0631C11.7084 20.0012 11.8189 19.9161 11.9032 19.8141C11.9875 19.7121 12.0435 19.5956 12.067 19.4733C12.2125 18.6911 12.689 17.9781 13.4103 17.463C14.1316 16.948 15.0501 16.6649 16 16.6649C16.9499 16.6649 17.8684 16.948 18.5897 17.463C19.311 17.9781 19.7875 18.6911 19.933 19.4733C19.9565 19.5956 20.0125 19.7121 20.0968 19.8141C20.1811 19.9161 20.2916 20.0012 20.4204 20.0631C20.5491 20.1251 20.6928 20.1623 20.841 20.1721C20.9892 20.182 21.1381 20.1642 21.277 20.12C21.5737 20.0166 21.8963 19.9755 22.2166 20.0002C22.5368 20.0249 22.8449 20.1148 23.1137 20.2619C23.3825 20.409 23.6039 20.6089 23.7585 20.8439C23.913 21.0789 23.9959 21.342 24 21.61C23.866 22.2008 22.694 26.3908 21.924 29.135C21.0762 28.6158 20.0521 28.335 19 28.3333C17.8478 28.3345 16.7313 28.6667 15.8388 29.2739C14.9462 29.8811 14.3321 30.7262 14.1 31.6667H12V30.8333C11.9972 30.2152 11.8285 29.6054 11.5061 29.0486C11.1837 28.4919 10.7159 28.0023 10.137 27.6158C8.279 22.7883 8.021 21.8225 8 21.6667ZM6 29.1667V28.3333H7C7.79565 28.3333 8.55871 28.5967 9.12132 29.0656C9.68393 29.5344 10 30.1703 10 30.8333V31.6667H9C8.20435 31.6667 7.44129 31.4033 6.87868 30.9344C6.31607 30.4656 6 29.8297 6 29.1667ZM39.73 45H35V46.6667H39V48.3333H13V46.6667H26V45H12.27C11.144 44.445 5.423 41.4258 3.046 36.6667H14V35H2.385C2.21594 34.4532 2.10089 33.8958 2.041 33.3333H49.959C49.8991 33.8958 49.7841 34.4532 49.615 35H28V36.6667H48.954C46.577 41.4258 40.856 44.445 39.73 45Z" fill="white"/>
<path d="M16 35.0001H18V36.6667H16V35.0001Z" fill="white"/>
<path d="M20 35.0001H22V36.6667H20V35.0001Z" fill="white"/>
<path d="M24 35.0001H26V36.6667H24V35.0001Z" fill="white"/>
<path d="M24.491 12.795C24.2394 13.2761 24.1798 13.8119 24.321 14.3233C24.752 16.0067 27.083 17.7183 29.744 18.3058C31.7772 18.767 33.8611 19.0554 35.964 19.1667H36C36.1839 19.1666 36.3642 19.1243 36.5211 19.0443C36.678 18.9644 36.8054 18.85 36.8893 18.7137C36.9732 18.5773 37.0104 18.4243 36.9968 18.2715C36.9831 18.1187 36.9192 17.972 36.812 17.8475C36.801 17.8342 35.681 16.5375 33.792 14.4917C32.953 13.5825 30.725 11.4417 28.164 11.1883C27.384 11.1073 26.5933 11.2367 25.908 11.5575C25.3535 11.3476 24.8807 11.0123 24.5434 10.5896C24.2061 10.167 24.0179 9.674 24 9.16666H22C21.9994 9.89995 22.229 10.6206 22.666 11.2571C23.103 11.8936 23.7321 12.4238 24.491 12.795ZM27.681 12.8308C27.7636 12.8308 27.8461 12.8353 27.928 12.8442C29.163 12.9658 30.802 13.9867 32.208 15.5108C32.849 16.2058 33.401 16.8125 33.849 17.3108C32.6384 17.1626 31.4389 16.9575 30.256 16.6967C28.174 16.2375 26.518 14.9208 26.277 13.9783C26.2255 13.8271 26.2316 13.6662 26.2945 13.518C26.3573 13.3698 26.4739 13.2415 26.628 13.1508C26.9222 12.9435 27.2958 12.8309 27.681 12.8333V12.8308Z" fill="white"/>
<path d="M12 23.3333H14V25H12V23.3333Z" fill="white"/>
<path d="M16.9999 25H18.9999V26.6667H16.9999V25Z" fill="white"/>
<path d="M4.94501 13.3333C5.20701 13.345 6.15401 13.3833 7.40601 13.3833C9.89701 13.3833 13.593 13.23 15.467 12.4042C16.7133 11.7964 17.6327 10.8138 18.036 9.65833C18.2789 9.11433 18.3905 8.53572 18.3644 7.9557C18.3383 7.37567 18.1751 6.80565 17.884 6.27833C16.651 4.33333 12.919 4.04499 10.533 5.09666C7.68201 6.35249 4.46501 11.5358 4.10801 12.1225C4.0323 12.2462 3.99487 12.3836 3.9991 12.5224C4.00334 12.6612 4.04911 12.7969 4.13227 12.9172C4.21542 13.0375 4.33332 13.1385 4.47525 13.2112C4.61719 13.2839 4.77866 13.3259 4.94501 13.3333ZM10.774 8.72916L7.72601 10.2108C8.19501 9.59333 8.70801 8.97249 9.22601 8.40749L10.774 8.72916ZM12 10.0617V11.4875C10.8843 11.6073 9.76169 11.6771 8.63701 11.6967L12 10.0617ZM16.134 9.14499C15.8862 9.88599 15.3157 10.5233 14.534 10.9325C14.3614 11.0027 14.1833 11.0631 14.001 11.1133V9.08999L16.354 7.94583C16.3615 8.35216 16.2872 8.75667 16.134 9.14249V9.14499ZM15.379 6.49249L13.247 7.52916L10.752 7.00916C10.9719 6.84271 11.213 6.69684 11.471 6.57416C12.0743 6.32002 12.7379 6.18065 13.4137 6.16609C14.0895 6.15154 14.7607 6.26217 15.379 6.48999V6.49249Z" fill="white"/>
<path d="M38.9999 6.66667H40.9999C41.2651 6.66667 41.5195 6.57887 41.707 6.42259C41.8945 6.26631 41.9999 6.05435 41.9999 5.83333C41.9978 4.28678 41.2596 2.80407 39.9473 1.71049C38.635 0.616913 36.8557 0.00176447 34.9999 0H32.9999C32.7347 0 32.4803 0.0877974 32.2928 0.244078C32.1052 0.400358 31.9999 0.61232 31.9999 0.833334C32.002 2.37989 32.7402 3.8626 34.0525 4.95618C35.3648 6.04976 37.144 6.6649 38.9999 6.66667ZM34.9999 1.66667C36.1521 1.66772 37.2687 1.99986 38.1613 2.60708C39.0539 3.21429 39.668 4.05944 39.8999 5H38.9999C37.8476 4.99895 36.7311 4.66681 35.8384 4.05959C34.9458 3.45237 34.3318 2.60723 34.0999 1.66667H34.9999Z" fill="white"/>
<path d="M27 6.66666C27.5933 6.66666 28.1734 6.52004 28.6667 6.24533C29.1601 5.97063 29.5446 5.58018 29.7716 5.12337C29.9987 4.66655 30.0581 4.16388 29.9424 3.67893C29.8266 3.19398 29.5409 2.74852 29.1213 2.39889C28.7018 2.04926 28.1672 1.81116 27.5853 1.71469C27.0033 1.61823 26.4001 1.66774 25.852 1.85696C25.3038 2.04618 24.8352 2.36661 24.5056 2.77773C24.1759 3.18885 24 3.6722 24 4.16666C24 4.8297 24.3161 5.46558 24.8787 5.93443C25.4413 6.40327 26.2044 6.66666 27 6.66666ZM27 3.33332C27.1978 3.33332 27.3911 3.3822 27.5556 3.47377C27.72 3.56533 27.8482 3.69548 27.9239 3.84776C27.9996 4.00003 28.0194 4.16758 27.9808 4.32923C27.9422 4.49088 27.847 4.63937 27.7071 4.75591C27.5673 4.87246 27.3891 4.95182 27.1951 4.98398C27.0011 5.01613 26.8 4.99963 26.6173 4.93656C26.4346 4.87348 26.2784 4.76667 26.1685 4.62963C26.0586 4.49259 26 4.33148 26 4.16666C26 3.94564 26.1054 3.73368 26.2929 3.5774C26.4804 3.42112 26.7348 3.33332 27 3.33332Z" fill="white"/>
<path d="M38 11.6667C38 12.1611 38.1759 12.6445 38.5056 13.0556C38.8352 13.4667 39.3038 13.7871 39.852 13.9764C40.4001 14.1656 41.0033 14.2151 41.5853 14.1186C42.1672 14.0222 42.7018 13.7841 43.1213 13.4344C43.5409 13.0848 43.8266 12.6393 43.9424 12.1544C44.0581 11.6694 43.9987 11.1668 43.7716 10.7099C43.5446 10.2531 43.1601 9.86269 42.6667 9.58798C42.1734 9.31328 41.5933 9.16666 41 9.16666C40.2044 9.16666 39.4413 9.43005 38.8787 9.89889C38.3161 10.3677 38 11.0036 38 11.6667ZM42 11.6667C42 11.8315 41.9414 11.9926 41.8315 12.1296C41.7216 12.2667 41.5654 12.3735 41.3827 12.4366C41.2 12.4996 40.9989 12.5161 40.8049 12.484C40.6109 12.4518 40.4327 12.3725 40.2929 12.2559C40.153 12.1394 40.0578 11.9909 40.0192 11.8292C39.9806 11.6676 40.0004 11.5 40.0761 11.3478C40.1518 11.1955 40.28 11.0653 40.4444 10.9738C40.6089 10.8822 40.8022 10.8333 41 10.8333C41.2652 10.8333 41.5196 10.9211 41.7071 11.0774C41.8946 11.2337 42 11.4456 42 11.6667Z" fill="white"/>
<path d="M31 22.5H33V24.1667H31V22.5Z" fill="white"/>
<path d="M34 8.33334H36V10H34V8.33334Z" fill="white"/>
<path d="M18 0.833313H20V2.49998H18V0.833313Z" fill="white"/>
<path d="M39 19.1667H41V20.8333H39V19.1667Z" fill="white"/>
</svg>
