<svg width="54" height="50" viewBox="0 0 54 50" fill="none" xmlns="http://www.w3.org/2000/svg">
<path d="M50.3854 21.5443H47.6801C47.526 20.9865 47.1944 20.494 46.7356 20.1413C46.2767 19.7886 45.7155 19.5948 45.1368 19.5894H42.2489V12.5272C42.2521 12.3951 42.2202 12.2645 42.1563 12.1488C42.0925 12.0331 41.999 11.9365 41.8855 11.8688L21.5129 0.101895C21.3981 0.0351557 21.2677 0 21.1349 0C21.0021 0 20.8716 0.0351557 20.7568 0.101895L0.377963 11.8688C0.262654 11.9356 0.167002 12.0317 0.100647 12.1473C0.0342914 12.2629 -0.000422447 12.3939 3.87998e-06 12.5272V36.0611C7.27016e-06 36.1946 0.0351377 36.3257 0.101864 36.4412C0.168591 36.5568 0.264563 36.6528 0.380135 36.7195L20.761 48.4864C20.8766 48.5531 21.0077 48.5883 21.1412 48.5883C21.2781 48.5883 21.4127 48.5533 21.5322 48.4864L32.2568 42.3004V46.7722C32.2557 47.198 32.3391 47.6197 32.5021 48.013C32.6651 48.4064 32.9045 48.7635 33.2064 49.0636C33.5083 49.3638 33.8668 49.6011 34.261 49.7618C34.6553 49.9225 35.0775 50.0034 35.5033 49.9999H50.3854C50.8122 50.0038 51.2357 49.9233 51.6313 49.763C52.0269 49.6027 52.3869 49.3658 52.6906 49.0658C52.9943 48.7658 53.2356 48.4087 53.4007 48.0151C53.5659 47.6215 53.6515 47.1991 53.6528 46.7722V24.8224C53.6523 23.955 53.3082 23.1231 52.6959 22.5088C52.0835 21.8944 51.2528 21.5477 50.3854 21.5443ZM45.1638 21.1099C45.4565 21.1099 45.7372 21.2262 45.9442 21.4331C46.1511 21.6401 46.2674 21.9208 46.2674 22.2135V22.2871C46.2674 22.5798 46.1511 22.8605 45.9442 23.0675C45.7372 23.2744 45.4565 23.3907 45.1638 23.3907H40.7458C40.4531 23.3907 40.1724 23.2744 39.9655 23.0675C39.7585 22.8605 39.6423 22.5798 39.6423 22.2871V22.2135C39.6423 21.9208 39.7585 21.6401 39.9655 21.4331C40.1724 21.2262 40.4531 21.1099 40.7458 21.1099H45.1638ZM21.1412 1.63817L29.6098 6.52752L10.7508 17.4158L2.2822 12.5264L21.1412 1.63817ZM20.4185 46.5111L1.52053 35.6221V13.8423L20.4185 24.7313V46.5111ZM21.1412 23.4146L12.2713 18.2936L31.1304 7.40541L40.0007 12.5264L21.1412 23.4146ZM32.2568 24.8224V40.5447L21.939 46.5111V24.7313L40.7283 13.8423V19.5894H40.7519C40.1732 19.5948 39.612 19.7885 39.1531 20.1412C38.6942 20.4939 38.3627 20.9865 38.2086 21.5443H35.5033C34.6381 21.5485 33.81 21.8962 33.2012 22.511C32.5923 23.1257 32.2527 23.9572 32.2568 24.8224ZM52.1323 46.7722C52.1312 46.9995 52.085 47.2243 51.9964 47.4335C51.9077 47.6427 51.7784 47.8323 51.6159 47.9911C51.4533 48.1499 51.2609 48.2749 51.0496 48.3587C50.8384 48.4425 50.6126 48.4835 50.3854 48.4793H35.5033C35.2772 48.4831 35.0526 48.4417 34.8427 48.3575C34.6328 48.2733 34.4418 48.148 34.2811 47.989C34.1203 47.83 33.9929 47.6404 33.9064 47.4314C33.8199 47.2225 33.776 46.9984 33.7774 46.7722V24.8224C33.7751 24.5936 33.8179 24.3666 33.9035 24.1544C33.989 23.9422 34.1155 23.7489 34.2758 23.5857C34.4361 23.4224 34.6271 23.2924 34.8377 23.203C35.0483 23.1137 35.2745 23.0667 35.5033 23.0649H38.2383C38.4013 23.603 38.7344 24.0738 39.1876 24.4067C39.6408 24.7396 40.1896 24.9166 40.7519 24.9112H45.1368C45.699 24.9166 46.2479 24.7396 46.7011 24.4067C47.1542 24.0738 47.4873 23.603 47.6503 23.0649H50.3854C50.8496 23.0678 51.2939 23.2542 51.6212 23.5835C51.9484 23.9128 52.1322 24.3581 52.1323 24.8224V46.7722Z" fill="white"/>
</svg>
