<svg width="16" height="16" viewBox="0 0 16 16" fill="none" xmlns="http://www.w3.org/2000/svg">
<path fill-rule="evenodd" clip-rule="evenodd" d="M8 16C12.4183 16 16 12.4183 16 8C16 3.58172 12.4183 0 8 0C3.58172 0 0 3.58172 0 8C0 12.4183 3.58172 16 8 16Z" fill="#2EC1CC"/>
<path fill-rule="evenodd" clip-rule="evenodd" d="M6.91531 10.6846L4.37685 8.13077C4.28454 8.03846 4.28454 7.88462 4.37685 7.79231L4.71531 7.45385C4.80762 7.36154 4.96146 7.36154 5.05377 7.45385L6.96146 9.37692C7.023 9.43846 7.13069 9.43846 7.19223 9.37692L10.9307 5.60769C11.023 5.51538 11.1768 5.51538 11.2692 5.60769L11.6076 5.94615C11.6999 6.03846 11.6999 6.19231 11.6076 6.28462L7.25377 10.6846C7.16146 10.7923 7.00762 10.7923 6.91531 10.6846Z" fill="white"/>
</svg>
