<svg width="16" height="16" viewBox="0 0 16 16" fill="none" xmlns="http://www.w3.org/2000/svg">
<path fill-rule="evenodd" clip-rule="evenodd" d="M10.168 7.71892L15.8049 2.05405C16.065 1.79459 16.065 1.40541 15.8049 1.14595L14.9377 0.237838C14.6775 -0.0216216 14.2873 -0.0216216 14.0271 0.237838L8.34688 5.9027C8.17344 6.07568 7.91328 6.07568 7.73984 5.9027L2.05962 0.194595C1.79946 -0.0648649 1.40921 -0.0648649 1.14905 0.194595L0.238482 1.1027C-0.0216802 1.36216 -0.0216802 1.75135 0.238482 2.01081L5.9187 7.67568C6.09214 7.84865 6.09214 8.10811 5.9187 8.28108L0.195122 13.9892C-0.0650406 14.2486 -0.0650406 14.6378 0.195122 14.8973L1.10569 15.8054C1.36585 16.0649 1.7561 16.0649 2.01626 15.8054L7.69648 10.1405C7.86992 9.96757 8.13008 9.96757 8.30352 10.1405L13.9837 15.8054C14.2439 16.0649 14.6341 16.0649 14.8943 15.8054L15.8049 14.8973C16.065 14.6378 16.065 14.2486 15.8049 13.9892L10.168 8.32432C9.99458 8.15135 9.99458 7.89189 10.168 7.71892Z" fill="#B9B9B9"/>
</svg>
