<svg width="12" height="15" viewBox="0 0 12 15" fill="none" xmlns="http://www.w3.org/2000/svg">
<path fill-rule="evenodd" clip-rule="evenodd" d="M8.33333 1.85714V1.42857C8.33333 0.642857 7.73333 0 7 0H5C4.26667 0 3.66667 0.642857 3.66667 1.42857V1.85714H0.5C0.233333 1.85714 0 2.10714 0 2.39286V3.46429C0 3.75 0.233333 4 0.5 4H11.5C11.7667 4 12 3.75 12 3.46429V2.39286C12 2.10714 11.7667 1.85714 11.5 1.85714H8.33333ZM5 1.25C5 1.1 5.13333 1 5.33333 1H6.66667C6.86667 1 7 1.1 7 1.25V2H5V1.25ZM1.48529 5C1.22647 5 1 5.23333 1 5.5V13.3333C1 14.2667 1.71176 15 2.61765 15H9.38235C10.2882 15 11 14.2667 11 13.3333V5.5C11 5.23333 10.7735 5 10.5147 5H1.48529ZM5 12.625C5 12.85 4.9 13 4.75 13H4.25C4.1 13 4 12.85 4 12.625V7.375C4 7.15 4.1 7 4.25 7H4.75C4.9 7 5 7.15 5 7.375V12.625ZM8 12.625C8 12.85 7.9 13 7.75 13H7.25C7.1 13 7 12.85 7 12.625V7.375C7 7.15 7.1 7 7.25 7H7.75C7.9 7 8 7.15 8 7.375V12.625Z" fill="white"/>
</svg>
