<svg width="12" height="12" viewBox="0 0 12 12" fill="none" xmlns="http://www.w3.org/2000/svg">
<mask id="path-1-outside-1" maskUnits="userSpaceOnUse" x="0" y="0" width="12" height="12" fill="black">
<rect fill="white" width="12" height="12"/>
<path fill-rule="evenodd" clip-rule="evenodd" d="M7.35501 5.82432L10.878 2.28378C11.0407 2.12162 11.0407 1.87838 10.878 1.71622L10.336 1.14865C10.1734 0.986486 9.92954 0.986486 9.76694 1.14865L6.2168 4.68919C6.1084 4.7973 5.9458 4.7973 5.8374 4.68919L2.28726 1.12162C2.12466 0.959459 1.88076 0.959459 1.71816 1.12162L1.14905 1.68919C0.98645 1.85135 0.98645 2.09459 1.14905 2.25676L4.69919 5.7973C4.80759 5.90541 4.80759 6.06757 4.69919 6.17568L1.12195 9.74324C0.95935 9.90541 0.95935 10.1486 1.12195 10.3108L1.69106 10.8784C1.85366 11.0405 2.09756 11.0405 2.26016 10.8784L5.8103 7.33784C5.9187 7.22973 6.0813 7.22973 6.1897 7.33784L9.73984 10.8784C9.90244 11.0405 10.1463 11.0405 10.3089 10.8784L10.878 10.3108C11.0407 10.1486 11.0407 9.90541 10.878 9.74324L7.35501 6.2027C7.24661 6.09459 7.24661 5.93243 7.35501 5.82432Z"/>
</mask>
<path fill-rule="evenodd" clip-rule="evenodd" d="M7.35501 5.82432L10.878 2.28378C11.0407 2.12162 11.0407 1.87838 10.878 1.71622L10.336 1.14865C10.1734 0.986486 9.92954 0.986486 9.76694 1.14865L6.2168 4.68919C6.1084 4.7973 5.9458 4.7973 5.8374 4.68919L2.28726 1.12162C2.12466 0.959459 1.88076 0.959459 1.71816 1.12162L1.14905 1.68919C0.98645 1.85135 0.98645 2.09459 1.14905 2.25676L4.69919 5.7973C4.80759 5.90541 4.80759 6.06757 4.69919 6.17568L1.12195 9.74324C0.95935 9.90541 0.95935 10.1486 1.12195 10.3108L1.69106 10.8784C1.85366 11.0405 2.09756 11.0405 2.26016 10.8784L5.8103 7.33784C5.9187 7.22973 6.0813 7.22973 6.1897 7.33784L9.73984 10.8784C9.90244 11.0405 10.1463 11.0405 10.3089 10.8784L10.878 10.3108C11.0407 10.1486 11.0407 9.90541 10.878 9.74324L7.35501 6.2027C7.24661 6.09459 7.24661 5.93243 7.35501 5.82432Z" fill="#606060"/>
<path d="M10.878 2.28378L10.1719 1.57572L10.1692 1.57843L10.878 2.28378ZM10.878 1.71622L10.1548 2.40685L10.1633 2.41567L10.1719 2.42428L10.878 1.71622ZM10.336 1.14865L11.0592 0.458015L11.0508 0.449197L11.0422 0.440586L10.336 1.14865ZM9.76694 1.14865L10.4731 1.85671L9.76694 1.14865ZM6.2168 4.68919L6.92295 5.39725L6.2168 4.68919ZM5.8374 4.68919L5.12856 5.39457L5.13125 5.39725L5.8374 4.68919ZM2.28726 1.12162L2.9961 0.416244L2.99341 0.413559L2.28726 1.12162ZM1.71816 1.12162L2.42431 1.82968V1.82968L1.71816 1.12162ZM1.14905 1.68919L0.442902 0.981126L0.442902 0.981126L1.14905 1.68919ZM1.14905 2.25676L0.442902 2.96482L1.14905 2.25676ZM4.69919 5.7973L3.99304 6.50536L4.69919 5.7973ZM4.69919 6.17568L5.40534 6.88374L4.69919 6.17568ZM1.12195 9.74324L0.415802 9.03518H0.415802L1.12195 9.74324ZM1.12195 10.3108L1.8281 9.60275H1.8281L1.12195 10.3108ZM1.69106 10.8784L0.984907 11.5864H0.984908L1.69106 10.8784ZM2.26016 10.8784L2.96631 11.5864L2.26016 10.8784ZM5.8103 7.33784L5.10415 6.62977L5.8103 7.33784ZM6.1897 7.33784L6.89585 6.62977L6.1897 7.33784ZM9.73984 10.8784L9.03369 11.5864L9.73984 10.8784ZM10.3089 10.8784L11.0151 11.5864L10.3089 10.8784ZM10.878 10.3108L10.1719 9.60275L10.878 10.3108ZM10.878 9.74324L10.1692 10.4486L10.1719 10.4513L10.878 9.74324ZM7.35501 6.2027L8.06388 5.49735L8.06116 5.49464L7.35501 6.2027ZM8.06387 6.52968L11.5869 2.98914L10.1692 1.57843L6.64616 5.11897L8.06387 6.52968ZM11.5842 2.99185C12.1386 2.43894 12.1386 1.56106 11.5842 1.00815L10.1719 2.42428C10.0714 2.32403 10 2.1731 10 2C10 1.8269 10.0714 1.67597 10.1719 1.57572L11.5842 2.99185ZM11.6013 1.02558L11.0592 0.458015L9.61284 1.83928L10.1548 2.40685L11.6013 1.02558ZM11.0422 0.440586C10.4893 -0.110826 9.61369 -0.110826 9.06079 0.440586L10.4731 1.85671C10.3726 1.95691 10.2225 2.02703 10.0515 2.02703C9.88044 2.02703 9.73036 1.95691 9.62989 1.85671L11.0422 0.440586ZM9.06079 0.440586L5.51065 3.98113L6.92295 5.39725L10.4731 1.85671L9.06079 0.440586ZM5.51065 3.98113C5.63822 3.8539 5.82217 3.77027 6.0271 3.77027C6.23203 3.77027 6.41598 3.8539 6.54355 3.98113L5.13125 5.39725C5.62995 5.89461 6.42425 5.89461 6.92295 5.39725L5.51065 3.98113ZM6.54623 3.98382L2.9961 0.416249L1.57843 1.82699L5.12856 5.39456L6.54623 3.98382ZM2.99341 0.413559C2.44051 -0.137853 1.56491 -0.137853 1.01201 0.413559L2.42431 1.82968C2.32384 1.92988 2.17376 2 2.00271 2C1.83166 2 1.68158 1.92988 1.58111 1.82968L2.99341 0.413559ZM1.01201 0.413559L0.442902 0.981126L1.8552 2.39725L2.42431 1.82968L1.01201 0.413559ZM0.442902 0.981126C-0.1115 1.53403 -0.1115 2.41192 0.442902 2.96482L1.8552 1.54869C1.95572 1.64895 2.0271 1.79988 2.0271 1.97297C2.0271 2.14607 1.95572 2.297 1.8552 2.39725L0.442902 0.981126ZM0.442902 2.96482L3.99304 6.50536L5.40534 5.08923L1.8552 1.54869L0.442902 2.96482ZM3.99304 6.50536C3.86541 6.37808 3.78049 6.19337 3.78049 5.98649C3.78049 5.77961 3.86541 5.59489 3.99304 5.46761L5.40534 6.88374C5.90554 6.38489 5.90554 5.58808 5.40534 5.08923L3.99304 6.50536ZM3.99304 5.46761L0.415802 9.03518L1.8281 10.4513L5.40534 6.88374L3.99304 5.46761ZM0.415802 9.03518C-0.138601 9.58808 -0.138601 10.466 0.415802 11.0189L1.8281 9.60275C1.92862 9.703 2 9.85393 2 10.027C2 10.2001 1.92862 10.3511 1.8281 10.4513L0.415802 9.03518ZM0.415802 11.0189L0.984907 11.5864L2.39721 10.1703L1.8281 9.60275L0.415802 11.0189ZM0.984908 11.5864C1.53781 12.1379 2.41341 12.1379 2.96631 11.5864L1.55401 10.1703C1.65448 10.0701 1.80456 10 1.97561 10C2.14666 10 2.29674 10.0701 2.39721 10.1703L0.984908 11.5864ZM2.96631 11.5864L6.51645 8.0459L5.10415 6.62977L1.55401 10.1703L2.96631 11.5864ZM6.51645 8.0459C6.38888 8.17312 6.20493 8.25676 6 8.25676C5.79507 8.25676 5.61112 8.17312 5.48355 8.0459L6.89585 6.62977C6.39715 6.13242 5.60285 6.13242 5.10415 6.62977L6.51645 8.0459ZM5.48355 8.0459L9.03369 11.5864L10.446 10.1703L6.89585 6.62977L5.48355 8.0459ZM9.03369 11.5864C9.58659 12.1379 10.4622 12.1379 11.0151 11.5864L9.60279 10.1703C9.70326 10.0701 9.85334 10 10.0244 10C10.1954 10 10.3455 10.0701 10.446 10.1703L9.03369 11.5864ZM11.0151 11.5864L11.5842 11.0189L10.1719 9.60275L9.60279 10.1703L11.0151 11.5864ZM11.5842 11.0189C12.1386 10.466 12.1386 9.58808 11.5842 9.03518L10.1719 10.4513C10.0714 10.3511 10 10.2001 10 10.027C10 9.85393 10.0714 9.703 10.1719 9.60275L11.5842 11.0189ZM11.5869 9.03789L8.06387 5.49735L6.64616 6.90806L10.1692 10.4486L11.5869 9.03789ZM8.06116 5.49464C8.18879 5.62192 8.27371 5.80663 8.27371 6.01351C8.27371 6.22039 8.18879 6.40511 8.06116 6.53239L6.64886 5.11626C6.14866 5.61511 6.14866 6.41192 6.64886 6.91077L8.06116 5.49464Z" fill="white" mask="url(#path-1-outside-1)"/>
</svg>
