<svg width="188" height="142" viewBox="0 0 188 142" fill="none" xmlns="http://www.w3.org/2000/svg">
<rect x="1" y="1" width="186" height="140" rx="5" fill="#F3F8F9" stroke="#DDDBDA" stroke-width="2" stroke-linecap="round" stroke-linejoin="round" stroke-dasharray="10 15"/>
<path d="M68.1706 63.74C68.1706 65.124 67.7826 66.18 67.0066 66.908C66.2386 67.636 65.1666 68 63.7906 68H61.0546V59.504H63.7666C65.1746 59.504 66.2586 59.856 67.0186 60.56C67.7866 61.256 68.1706 62.316 68.1706 63.74ZM62.1106 60.38V67.112H63.6826C64.7866 67.112 65.6266 66.836 66.2026 66.284C66.7866 65.732 67.0786 64.884 67.0786 63.74C67.0786 61.5 65.9506 60.38 63.6946 60.38H62.1106ZM69.7957 63.26C69.7957 62.812 69.7677 62.356 69.7117 61.892H70.6837C70.7237 62.164 70.7517 62.488 70.7677 62.864H70.7917C71.1437 62.104 71.7837 61.724 72.7117 61.724C72.7757 61.724 72.8917 61.736 73.0597 61.76L72.9997 62.636C72.9197 62.62 72.7957 62.612 72.6277 62.612C72.0437 62.612 71.5957 62.808 71.2837 63.2C70.9717 63.592 70.8157 64.1 70.8157 64.724V68H69.7957V63.26ZM73.4044 66.332C73.4044 65.54 73.6884 64.992 74.2564 64.688C74.8324 64.376 75.6964 64.22 76.8484 64.22C77.1284 64.22 77.3404 64.224 77.4844 64.232V63.884C77.4844 63.428 77.3604 63.088 77.1124 62.864C76.8644 62.64 76.4844 62.528 75.9724 62.528C75.3244 62.528 74.7124 62.7 74.1364 63.044L73.7764 62.36C74.4644 61.936 75.2164 61.724 76.0324 61.724C76.8884 61.724 77.5124 61.924 77.9044 62.324C78.3044 62.724 78.5044 63.332 78.5044 64.148V66.644C78.5044 67.084 78.5324 67.536 78.5884 68H77.6524C77.5964 67.648 77.5684 67.372 77.5684 67.172H77.5324C77.3084 67.5 77.0244 67.748 76.6804 67.916C76.3444 68.084 75.9084 68.168 75.3724 68.168C74.7804 68.168 74.3044 68.012 73.9444 67.7C73.5844 67.38 73.4044 66.924 73.4044 66.332ZM77.4844 65.744V64.952L76.9444 64.94C76.3444 64.94 75.8644 64.98 75.5044 65.06C75.1524 65.14 74.8884 65.276 74.7124 65.468C74.5444 65.66 74.4604 65.928 74.4604 66.272C74.4604 66.624 74.5644 66.896 74.7724 67.088C74.9804 67.272 75.2684 67.364 75.6364 67.364C76.0204 67.364 76.3524 67.284 76.6324 67.124C76.9124 66.956 77.1244 66.748 77.2684 66.5C77.4124 66.252 77.4844 66 77.4844 65.744ZM79.6912 69.248C79.6912 68.904 79.7872 68.592 79.9792 68.312C80.1792 68.04 80.5032 67.792 80.9512 67.568C80.5592 67.392 80.3632 67.124 80.3632 66.764C80.3632 66.548 80.4392 66.356 80.5912 66.188C80.7512 66.02 80.9712 65.896 81.2512 65.816C80.8752 65.664 80.5792 65.432 80.3632 65.12C80.1552 64.808 80.0512 64.412 80.0512 63.932C80.0512 63.252 80.2752 62.716 80.7232 62.324C81.1712 61.932 81.7952 61.736 82.5952 61.736C82.8112 61.736 82.9912 61.748 83.1352 61.772C83.2872 61.796 83.4672 61.836 83.6752 61.892H85.7992V62.708L84.4432 62.564C84.6352 62.7 84.7912 62.892 84.9112 63.14C85.0312 63.388 85.0912 63.684 85.0912 64.028C85.0912 64.676 84.8712 65.184 84.4312 65.552C83.9912 65.912 83.3752 66.092 82.5832 66.092C82.1832 66.092 81.8672 66.144 81.6352 66.248C81.4112 66.352 81.2992 66.496 81.2992 66.68C81.2992 67.008 81.6872 67.176 82.4632 67.184C83.5912 67.2 84.4072 67.352 84.9112 67.64C85.4232 67.92 85.6792 68.348 85.6792 68.924C85.6792 69.612 85.3912 70.144 84.8152 70.52C84.2472 70.896 83.4472 71.084 82.4152 71.084C81.5192 71.084 80.8392 70.924 80.3752 70.604C79.9192 70.284 79.6912 69.832 79.6912 69.248ZM84.1432 63.944C84.1432 63.504 84.0112 63.152 83.7472 62.888C83.4832 62.624 83.0912 62.492 82.5712 62.492C82.0912 62.492 81.7072 62.62 81.4192 62.876C81.1392 63.132 80.9992 63.476 80.9992 63.908C80.9992 64.364 81.1272 64.72 81.3832 64.976C81.6472 65.232 82.0432 65.36 82.5712 65.36C83.6192 65.36 84.1432 64.888 84.1432 63.944ZM84.6712 69.008C84.6712 68.768 84.5792 68.572 84.3952 68.42C84.2192 68.268 83.9152 68.152 83.4832 68.072C83.0512 67.992 82.4592 67.952 81.7072 67.952C81.3472 68.112 81.0872 68.292 80.9272 68.492C80.7672 68.7 80.6872 68.936 80.6872 69.2C80.6872 69.944 81.2752 70.316 82.4512 70.316C83.1792 70.316 83.7312 70.204 84.1072 69.98C84.4832 69.756 84.6712 69.432 84.6712 69.008ZM96.414 68.168L95.31 67.1C94.966 67.452 94.578 67.72 94.146 67.904C93.714 68.08 93.202 68.168 92.61 68.168C92.042 68.168 91.542 68.068 91.11 67.868C90.678 67.66 90.342 67.376 90.102 67.016C89.87 66.656 89.754 66.24 89.754 65.768C89.754 65.24 89.886 64.784 90.15 64.4C90.422 64.016 90.854 63.672 91.446 63.368C91.07 62.992 90.798 62.656 90.63 62.36C90.462 62.064 90.378 61.696 90.378 61.256C90.378 60.672 90.59 60.2 91.014 59.84C91.438 59.48 91.978 59.3 92.634 59.3C93.098 59.3 93.498 59.384 93.834 59.552C94.178 59.712 94.438 59.936 94.614 60.224C94.79 60.512 94.878 60.832 94.878 61.184C94.878 61.712 94.714 62.156 94.386 62.516C94.058 62.868 93.562 63.2 92.898 63.512L95.202 65.732C95.498 65.164 95.706 64.548 95.826 63.884L96.678 64.04C96.574 64.856 96.302 65.632 95.862 66.368L97.038 67.496L96.414 68.168ZM91.434 61.244C91.434 61.572 91.494 61.856 91.614 62.096C91.742 62.336 91.97 62.616 92.298 62.936C92.874 62.656 93.274 62.396 93.498 62.156C93.73 61.908 93.846 61.596 93.846 61.22C93.846 60.892 93.738 60.624 93.522 60.416C93.314 60.208 93.022 60.104 92.646 60.104C92.27 60.104 91.974 60.208 91.758 60.416C91.542 60.624 91.434 60.9 91.434 61.244ZM94.674 66.488L92.058 63.968C91.602 64.232 91.286 64.492 91.11 64.748C90.934 65.004 90.846 65.336 90.846 65.744C90.846 66.208 91.002 66.576 91.314 66.848C91.634 67.12 92.066 67.256 92.61 67.256C93.49 67.256 94.178 67 94.674 66.488ZM108.483 63.74C108.483 65.124 108.095 66.18 107.319 66.908C106.551 67.636 105.479 68 104.103 68H101.367V59.504H104.079C105.487 59.504 106.571 59.856 107.331 60.56C108.099 61.256 108.483 62.316 108.483 63.74ZM102.423 60.38V67.112H103.995C105.099 67.112 105.939 66.836 106.515 66.284C107.099 65.732 107.391 64.884 107.391 63.74C107.391 61.5 106.263 60.38 104.007 60.38H102.423ZM110.108 63.26C110.108 62.812 110.08 62.356 110.024 61.892H110.996C111.036 62.164 111.064 62.488 111.08 62.864H111.104C111.456 62.104 112.096 61.724 113.024 61.724C113.088 61.724 113.204 61.736 113.372 61.76L113.312 62.636C113.232 62.62 113.108 62.612 112.94 62.612C112.356 62.612 111.908 62.808 111.596 63.2C111.284 63.592 111.128 64.1 111.128 64.724V68H110.108V63.26ZM119.957 64.928C119.957 65.56 119.833 66.124 119.585 66.62C119.345 67.108 118.993 67.488 118.529 67.76C118.073 68.032 117.525 68.168 116.885 68.168C116.253 68.168 115.705 68.032 115.241 67.76C114.777 67.48 114.425 67.096 114.185 66.608C113.945 66.12 113.825 65.56 113.825 64.928C113.825 63.952 114.093 63.176 114.629 62.6C115.165 62.016 115.917 61.724 116.885 61.724C117.533 61.724 118.085 61.86 118.541 62.132C119.005 62.396 119.357 62.768 119.597 63.248C119.837 63.728 119.957 64.288 119.957 64.928ZM114.881 64.928C114.881 65.656 115.045 66.244 115.373 66.692C115.709 67.132 116.213 67.352 116.885 67.352C117.565 67.352 118.073 67.132 118.409 66.692C118.745 66.244 118.913 65.656 118.913 64.928C118.913 64.2 118.745 63.62 118.409 63.188C118.073 62.756 117.565 62.54 116.885 62.54C116.205 62.54 115.701 62.756 115.373 63.188C115.045 63.62 114.881 64.2 114.881 64.928ZM127.437 64.94C127.437 65.548 127.325 66.096 127.101 66.584C126.877 67.072 126.549 67.46 126.117 67.748C125.693 68.028 125.193 68.168 124.617 68.168C123.841 68.168 123.173 67.916 122.613 67.412V70.928H121.593V63.26C121.593 62.812 121.565 62.356 121.509 61.892H122.481C122.521 62.156 122.549 62.468 122.565 62.828H122.589C122.789 62.492 123.069 62.224 123.429 62.024C123.789 61.824 124.229 61.724 124.749 61.724C125.333 61.724 125.825 61.868 126.225 62.156C126.625 62.436 126.925 62.82 127.125 63.308C127.333 63.788 127.437 64.332 127.437 64.94ZM126.381 64.94C126.381 64.204 126.217 63.62 125.889 63.188C125.569 62.756 125.121 62.54 124.545 62.54C124.169 62.54 123.833 62.628 123.537 62.804C123.241 62.98 123.013 63.22 122.853 63.524C122.693 63.828 122.613 64.16 122.613 64.52V66.548C122.893 66.828 123.169 67.032 123.441 67.16C123.721 67.288 124.041 67.352 124.401 67.352C125.041 67.352 125.529 67.132 125.865 66.692C126.209 66.244 126.381 65.66 126.381 64.94ZM43.2428 82.208L43.7828 81.536C44.1268 81.808 44.4828 82.004 44.8508 82.124C45.2188 82.244 45.6348 82.304 46.0988 82.304C46.6748 82.304 47.1388 82.172 47.4908 81.908C47.8508 81.636 48.0308 81.244 48.0308 80.732C48.0308 80.372 47.9468 80.08 47.7788 79.856C47.6108 79.632 47.3788 79.452 47.0828 79.316C46.7868 79.18 46.3948 79.048 45.9068 78.92C45.1148 78.712 44.5228 78.432 44.1308 78.08C43.7388 77.72 43.5428 77.22 43.5428 76.58C43.5428 75.868 43.8068 75.312 44.3348 74.912C44.8708 74.512 45.5508 74.312 46.3748 74.312C46.8948 74.312 47.3628 74.38 47.7788 74.516C48.2028 74.652 48.5948 74.852 48.9548 75.116L48.4748 75.812C48.1388 75.596 47.8028 75.436 47.4668 75.332C47.1388 75.228 46.7748 75.176 46.3748 75.176C45.8388 75.176 45.4068 75.292 45.0788 75.524C44.7508 75.748 44.5868 76.076 44.5868 76.508C44.5868 76.94 44.7348 77.268 45.0308 77.492C45.3348 77.708 45.8268 77.904 46.5068 78.08C47.3628 78.304 48.0108 78.608 48.4508 78.992C48.8908 79.376 49.1108 79.944 49.1108 80.696C49.1108 81.24 48.9748 81.7 48.7028 82.076C48.4388 82.452 48.0788 82.736 47.6228 82.928C47.1668 83.112 46.6548 83.204 46.0868 83.204C44.9828 83.204 44.0348 82.872 43.2428 82.208ZM51.6499 74.504V83H50.6299V74.504H51.6499ZM54.7437 83H53.7237V76.892H54.7437V83ZM53.5677 74.804C53.5677 74.372 53.7917 74.156 54.2397 74.156C54.6797 74.156 54.8997 74.372 54.8997 74.804C54.8997 74.988 54.8477 75.14 54.7437 75.26C54.6397 75.372 54.4717 75.428 54.2397 75.428C53.9997 75.428 53.8277 75.372 53.7237 75.26C53.6197 75.14 53.5677 74.988 53.5677 74.804ZM62.2894 83H61.3414C61.2854 82.648 61.2574 82.344 61.2574 82.088H61.2334C60.7774 82.808 60.0494 83.168 59.0494 83.168C58.1854 83.168 57.5214 82.872 57.0574 82.28C56.6014 81.688 56.3734 80.916 56.3734 79.964C56.3734 79.356 56.4854 78.808 56.7094 78.32C56.9414 77.824 57.2694 77.436 57.6934 77.156C58.1174 76.868 58.6174 76.724 59.1934 76.724C60.0094 76.724 60.6734 76.988 61.1854 77.516V74.504H62.2054V81.644C62.2054 82.084 62.2334 82.536 62.2894 83ZM61.1854 80.372V78.452C60.9454 78.148 60.6734 77.924 60.3694 77.78C60.0734 77.628 59.7294 77.552 59.3374 77.552C58.7454 77.552 58.2774 77.776 57.9334 78.224C57.5974 78.672 57.4294 79.252 57.4294 79.964C57.4294 80.7 57.5934 81.284 57.9214 81.716C58.2494 82.14 58.7014 82.352 59.2774 82.352C59.8534 82.352 60.3134 82.168 60.6574 81.8C61.0094 81.424 61.1854 80.948 61.1854 80.372ZM69.3946 80.312H64.8586C64.8986 80.936 65.0866 81.432 65.4226 81.8C65.7586 82.168 66.2386 82.352 66.8626 82.352C67.2306 82.352 67.5586 82.304 67.8466 82.208C68.1426 82.104 68.4386 81.952 68.7346 81.752L69.1906 82.412C68.8466 82.66 68.4786 82.848 68.0866 82.976C67.7026 83.104 67.2746 83.168 66.8026 83.168C65.8666 83.168 65.1346 82.872 64.6066 82.28C64.0866 81.688 63.8266 80.9 63.8266 79.916C63.8266 79.284 63.9386 78.728 64.1626 78.248C64.3866 77.768 64.7106 77.396 65.1346 77.132C65.5666 76.86 66.0826 76.724 66.6826 76.724C67.5706 76.724 68.2466 77.012 68.7106 77.588C69.1826 78.164 69.4186 78.928 69.4186 79.88C69.4186 80.072 69.4106 80.216 69.3946 80.312ZM68.4226 79.52C68.4066 78.912 68.2506 78.424 67.9546 78.056C67.6586 77.688 67.2306 77.504 66.6706 77.504C66.1026 77.504 65.6626 77.696 65.3506 78.08C65.0386 78.456 64.8706 78.936 64.8466 79.52H68.4226ZM74.7397 77.372L74.2837 78.008C73.8117 77.68 73.2997 77.516 72.7477 77.516C72.3637 77.516 72.0637 77.592 71.8477 77.744C71.6317 77.888 71.5237 78.096 71.5237 78.368C71.5237 78.568 71.5677 78.732 71.6557 78.86C71.7437 78.988 71.8917 79.096 72.0997 79.184C72.3077 79.272 72.6117 79.364 73.0117 79.46C73.6357 79.612 74.0957 79.836 74.3917 80.132C74.6957 80.42 74.8477 80.8 74.8477 81.272C74.8477 81.872 74.6237 82.34 74.1757 82.676C73.7277 83.004 73.1757 83.168 72.5197 83.168C71.6397 83.168 70.9037 82.932 70.3117 82.46L70.7797 81.824C71.0517 82.008 71.3197 82.144 71.5837 82.232C71.8477 82.32 72.1477 82.364 72.4837 82.364C72.8917 82.364 73.2117 82.276 73.4437 82.1C73.6837 81.924 73.8037 81.672 73.8037 81.344C73.8037 81.128 73.7597 80.956 73.6717 80.828C73.5837 80.692 73.4357 80.58 73.2277 80.492C73.0277 80.404 72.7237 80.308 72.3157 80.204C71.6837 80.044 71.2237 79.828 70.9357 79.556C70.6477 79.284 70.5037 78.908 70.5037 78.428C70.5037 77.908 70.7037 77.496 71.1037 77.192C71.5117 76.88 72.0477 76.724 72.7117 76.724C73.4957 76.724 74.1717 76.94 74.7397 77.372ZM82.7821 74.492L82.5541 75.224C82.2981 75.168 82.0501 75.144 81.8101 75.152C81.0581 75.16 80.6821 75.572 80.6821 76.388V76.892H82.2181V77.672H80.6821V83H79.6621V77.672H78.5941V77.024L79.6621 76.892V76.364C79.6621 75.716 79.8341 75.22 80.1781 74.876C80.5221 74.524 81.0341 74.344 81.7141 74.336C82.1061 74.336 82.4621 74.388 82.7821 74.492ZM89.107 79.928C89.107 80.56 88.983 81.124 88.735 81.62C88.495 82.108 88.143 82.488 87.679 82.76C87.223 83.032 86.675 83.168 86.035 83.168C85.403 83.168 84.855 83.032 84.391 82.76C83.927 82.48 83.575 82.096 83.335 81.608C83.095 81.12 82.975 80.56 82.975 79.928C82.975 78.952 83.243 78.176 83.779 77.6C84.315 77.016 85.067 76.724 86.035 76.724C86.683 76.724 87.235 76.86 87.691 77.132C88.155 77.396 88.507 77.768 88.747 78.248C88.987 78.728 89.107 79.288 89.107 79.928ZM84.031 79.928C84.031 80.656 84.195 81.244 84.523 81.692C84.859 82.132 85.363 82.352 86.035 82.352C86.715 82.352 87.223 82.132 87.559 81.692C87.895 81.244 88.063 80.656 88.063 79.928C88.063 79.2 87.895 78.62 87.559 78.188C87.223 77.756 86.715 77.54 86.035 77.54C85.355 77.54 84.851 77.756 84.523 78.188C84.195 78.62 84.031 79.2 84.031 79.928ZM90.7429 78.26C90.7429 77.812 90.7149 77.356 90.6589 76.892H91.6309C91.6709 77.164 91.6989 77.488 91.7149 77.864H91.7389C92.0909 77.104 92.7309 76.724 93.6589 76.724C93.7229 76.724 93.8389 76.736 94.0069 76.76L93.9469 77.636C93.8669 77.62 93.7429 77.612 93.5749 77.612C92.9909 77.612 92.5429 77.808 92.2309 78.2C91.9189 78.592 91.7629 79.1 91.7629 79.724V83H90.7429V78.26ZM97.5358 82.208L98.0758 81.536C98.4198 81.808 98.7758 82.004 99.1438 82.124C99.5118 82.244 99.9278 82.304 100.392 82.304C100.968 82.304 101.432 82.172 101.784 81.908C102.144 81.636 102.324 81.244 102.324 80.732C102.324 80.372 102.24 80.08 102.072 79.856C101.904 79.632 101.672 79.452 101.376 79.316C101.08 79.18 100.688 79.048 100.2 78.92C99.4078 78.712 98.8158 78.432 98.4238 78.08C98.0318 77.72 97.8358 77.22 97.8358 76.58C97.8358 75.868 98.0998 75.312 98.6278 74.912C99.1638 74.512 99.8438 74.312 100.668 74.312C101.188 74.312 101.656 74.38 102.072 74.516C102.496 74.652 102.888 74.852 103.248 75.116L102.768 75.812C102.432 75.596 102.096 75.436 101.76 75.332C101.432 75.228 101.068 75.176 100.668 75.176C100.132 75.176 99.6998 75.292 99.3718 75.524C99.0438 75.748 98.8798 76.076 98.8798 76.508C98.8798 76.94 99.0278 77.268 99.3238 77.492C99.6278 77.708 100.12 77.904 100.8 78.08C101.656 78.304 102.304 78.608 102.744 78.992C103.184 79.376 103.404 79.944 103.404 80.696C103.404 81.24 103.268 81.7 102.996 82.076C102.732 82.452 102.372 82.736 101.916 82.928C101.46 83.112 100.948 83.204 100.38 83.204C99.2758 83.204 98.3278 82.872 97.5358 82.208ZM107.503 76.724C107.887 76.724 108.251 76.784 108.595 76.904C108.947 77.016 109.259 77.176 109.531 77.384L109.123 78.092C108.659 77.748 108.119 77.576 107.503 77.576C106.847 77.576 106.351 77.792 106.015 78.224C105.679 78.648 105.511 79.22 105.511 79.94C105.511 80.644 105.679 81.216 106.015 81.656C106.351 82.088 106.843 82.304 107.491 82.304C108.043 82.304 108.591 82.132 109.135 81.788L109.507 82.508C108.899 82.948 108.203 83.168 107.419 83.168C106.731 83.168 106.167 83.016 105.727 82.712C105.287 82.4 104.967 82 104.767 81.512C104.575 81.024 104.479 80.5 104.479 79.94C104.479 78.964 104.747 78.184 105.283 77.6C105.819 77.016 106.559 76.724 107.503 76.724ZM115.895 80.312H111.359C111.399 80.936 111.587 81.432 111.923 81.8C112.259 82.168 112.739 82.352 113.363 82.352C113.731 82.352 114.059 82.304 114.347 82.208C114.643 82.104 114.939 81.952 115.235 81.752L115.691 82.412C115.347 82.66 114.979 82.848 114.587 82.976C114.203 83.104 113.775 83.168 113.303 83.168C112.367 83.168 111.635 82.872 111.107 82.28C110.587 81.688 110.327 80.9 110.327 79.916C110.327 79.284 110.439 78.728 110.663 78.248C110.887 77.768 111.211 77.396 111.635 77.132C112.067 76.86 112.583 76.724 113.183 76.724C114.071 76.724 114.747 77.012 115.211 77.588C115.683 78.164 115.919 78.928 115.919 79.88C115.919 80.072 115.911 80.216 115.895 80.312ZM114.923 79.52C114.907 78.912 114.751 78.424 114.455 78.056C114.159 77.688 113.731 77.504 113.171 77.504C112.603 77.504 112.163 77.696 111.851 78.08C111.539 78.456 111.371 78.936 111.347 79.52H114.923ZM117.544 78.26C117.544 77.812 117.516 77.356 117.46 76.892H118.432C118.472 77.108 118.5 77.396 118.516 77.756H118.54C118.74 77.444 119.02 77.196 119.38 77.012C119.74 76.82 120.168 76.724 120.664 76.724C121.432 76.724 122 76.948 122.368 77.396C122.744 77.836 122.932 78.388 122.932 79.052V83H121.912V79.256C121.912 78.768 121.792 78.368 121.552 78.056C121.312 77.736 120.924 77.576 120.388 77.576C119.836 77.576 119.392 77.76 119.056 78.128C118.728 78.488 118.564 78.944 118.564 79.496V83H117.544V78.26ZM124.27 81.332C124.27 80.54 124.554 79.992 125.122 79.688C125.698 79.376 126.562 79.22 127.714 79.22C127.994 79.22 128.206 79.224 128.35 79.232V78.884C128.35 78.428 128.226 78.088 127.978 77.864C127.73 77.64 127.35 77.528 126.838 77.528C126.19 77.528 125.578 77.7 125.002 78.044L124.642 77.36C125.33 76.936 126.082 76.724 126.898 76.724C127.754 76.724 128.378 76.924 128.77 77.324C129.17 77.724 129.37 78.332 129.37 79.148V81.644C129.37 82.084 129.398 82.536 129.454 83H128.518C128.462 82.648 128.434 82.372 128.434 82.172H128.398C128.174 82.5 127.89 82.748 127.546 82.916C127.21 83.084 126.774 83.168 126.238 83.168C125.646 83.168 125.17 83.012 124.81 82.7C124.45 82.38 124.27 81.924 124.27 81.332ZM128.35 80.744V79.952L127.81 79.94C127.21 79.94 126.73 79.98 126.37 80.06C126.018 80.14 125.754 80.276 125.578 80.468C125.41 80.66 125.326 80.928 125.326 81.272C125.326 81.624 125.43 81.896 125.638 82.088C125.846 82.272 126.134 82.364 126.502 82.364C126.886 82.364 127.218 82.284 127.498 82.124C127.778 81.956 127.99 81.748 128.134 81.5C128.278 81.252 128.35 81 128.35 80.744ZM131.348 78.26C131.348 77.812 131.32 77.356 131.264 76.892H132.236C132.276 77.164 132.304 77.488 132.32 77.864H132.344C132.696 77.104 133.336 76.724 134.264 76.724C134.328 76.724 134.444 76.736 134.612 76.76L134.552 77.636C134.472 77.62 134.348 77.612 134.18 77.612C133.596 77.612 133.148 77.808 132.836 78.2C132.524 78.592 132.368 79.1 132.368 79.724V83H131.348V78.26ZM136.752 83H135.732V76.892H136.752V83ZM135.576 74.804C135.576 74.372 135.8 74.156 136.248 74.156C136.688 74.156 136.908 74.372 136.908 74.804C136.908 74.988 136.856 75.14 136.752 75.26C136.648 75.372 136.48 75.428 136.248 75.428C136.008 75.428 135.836 75.372 135.732 75.26C135.628 75.14 135.576 74.988 135.576 74.804ZM144.513 79.928C144.513 80.56 144.389 81.124 144.141 81.62C143.901 82.108 143.549 82.488 143.085 82.76C142.629 83.032 142.081 83.168 141.441 83.168C140.809 83.168 140.261 83.032 139.797 82.76C139.333 82.48 138.981 82.096 138.741 81.608C138.501 81.12 138.381 80.56 138.381 79.928C138.381 78.952 138.649 78.176 139.185 77.6C139.721 77.016 140.473 76.724 141.441 76.724C142.089 76.724 142.641 76.86 143.097 77.132C143.561 77.396 143.913 77.768 144.153 78.248C144.393 78.728 144.513 79.288 144.513 79.928ZM139.437 79.928C139.437 80.656 139.601 81.244 139.929 81.692C140.265 82.132 140.769 82.352 141.441 82.352C142.121 82.352 142.629 82.132 142.965 81.692C143.301 81.244 143.469 80.656 143.469 79.928C143.469 79.2 143.301 78.62 142.965 78.188C142.629 77.756 142.121 77.54 141.441 77.54C140.761 77.54 140.257 77.756 139.929 78.188C139.601 78.62 139.437 79.2 139.437 79.928Z" fill="#B6B6B7"/>
<path fill-rule="evenodd" clip-rule="evenodd" d="M70.1989 11.6201C69.6577 11.5102 69.1299 11.8599 69.02 12.4012C68.9101 12.9424 69.2598 13.4703 69.8011 13.5801C70.6168 13.7457 71.42 13.9455 72.2092 14.178C72.739 14.3341 73.295 14.0311 73.4511 13.5013C73.6071 12.9716 73.3042 12.4156 72.7744 12.2595C71.9303 12.0109 71.0712 11.7972 70.1989 11.6201ZM77.7124 14.1902C77.2173 13.9456 76.6175 14.1487 76.3729 14.6439C76.1283 15.139 76.3315 15.7387 76.8266 15.9834C78.3173 16.7197 79.7357 17.5805 81.0683 18.5523C81.5145 18.8777 82.1401 18.7798 82.4655 18.3335C82.7909 17.8873 82.6929 17.2617 82.2467 16.9363C80.8225 15.8978 79.3063 14.9776 77.7124 14.1902ZM86.2479 20.4122C85.8633 20.0159 85.2302 20.0064 84.8338 20.3911C84.4375 20.7757 84.428 21.4088 84.8127 21.8051C85.9642 22.9917 87.0152 24.2763 87.9517 25.6451C88.2636 26.1009 88.8859 26.2176 89.3417 25.9058C89.7975 25.5939 89.9142 24.9716 89.6024 24.5158C88.6014 23.0528 87.4783 21.68 86.2479 20.4122ZM92.2106 29.1308C91.9811 28.6285 91.3878 28.4073 90.8854 28.6368C90.3831 28.8663 90.1619 29.4596 90.3915 29.9619C91.0736 31.455 91.6327 33.0158 92.0559 34.6317C92.1958 35.1659 92.7424 35.4856 93.2766 35.3457C93.8109 35.2058 94.1306 34.6593 93.9907 34.125C93.538 32.3967 92.9401 30.7274 92.2106 29.1308ZM94.8883 39.35C94.8416 38.7997 94.3577 38.3913 93.8074 38.4379C93.2571 38.4845 92.8488 38.9684 92.8954 39.5188C92.9646 40.3364 93 41.164 93 42C93 42.5523 93.4477 43 94 43C94.5523 43 95 42.5523 95 42C95 41.1076 94.9623 40.2237 94.8883 39.35ZM99.7997 41.9394C100.131 41.4977 100.042 40.8708 99.6003 40.5393C99.1586 40.2077 98.5318 40.297 98.2002 40.7387L94 46.3342L89.7997 40.7387C89.4682 40.297 88.8414 40.2077 88.3997 40.5393C87.958 40.8708 87.8687 41.4977 88.2002 41.9394L93.2002 48.6003C93.3891 48.8519 93.6854 49 94 49C94.3146 49 94.6109 48.8519 94.7997 48.6003L99.7997 41.9394Z" fill="#DDDBDA"/>
</svg>
