<svg width="16" height="16" viewBox="0 0 16 16" fill="none" xmlns="http://www.w3.org/2000/svg">
<path d="M16 2.61719C16 2.96094 15.9349 3.29427 15.8047 3.61719C15.6745 3.9401 15.4844 4.22656 15.2344 4.47656L4.94531 14.7656L0 16L1.23438 11.0547L11.5234 0.765625C11.7734 0.515625 12.0599 0.325521 12.3828 0.195312C12.7057 0.0651042 13.0391 0 13.3828 0C13.7422 0 14.0807 0.0677083 14.3984 0.203125C14.7161 0.338542 14.9922 0.526042 15.2266 0.765625C15.4609 1.00521 15.6484 1.28385 15.7891 1.60156C15.9297 1.91927 16 2.25781 16 2.61719ZM2.54688 11.1562C3.09896 11.3385 3.57292 11.6276 3.96875 12.0234C4.36458 12.4193 4.65625 12.8958 4.84375 13.4531L13.2891 5L11 2.71094L2.54688 11.1562ZM1.375 14.625L3.94531 13.9844C3.89323 13.7448 3.8099 13.5182 3.69531 13.3047C3.58073 13.0911 3.4375 12.901 3.26562 12.7344C3.09375 12.5677 2.90365 12.4271 2.69531 12.3125C2.48698 12.1979 2.26042 12.112 2.01562 12.0547L1.375 14.625ZM14 4.28906C14.1302 4.15885 14.2552 4.03646 14.375 3.92188C14.4948 3.80729 14.6016 3.6875 14.6953 3.5625C14.7891 3.4375 14.862 3.29948 14.9141 3.14844C14.9661 2.9974 14.9948 2.82292 15 2.625C15 2.40104 14.9583 2.19271 14.875 2C14.7917 1.80729 14.6745 1.63542 14.5234 1.48438C14.3724 1.33333 14.2005 1.21615 14.0078 1.13281C13.8151 1.04948 13.6042 1.00521 13.375 1C13.1771 1 13.0052 1.02604 12.8594 1.07812C12.7135 1.13021 12.5755 1.20573 12.4453 1.30469C12.3151 1.40365 12.1927 1.51042 12.0781 1.625C11.9635 1.73958 11.8411 1.86458 11.7109 2L14 4.28906Z" fill="white"/>
</svg>
