<svg width="16" height="15" viewBox="0 0 16 15" fill="none" xmlns="http://www.w3.org/2000/svg">
<path fill-rule="evenodd" clip-rule="evenodd" d="M15.2609 13.3224L11.1378 9.23013C11.9686 8.06089 12.3994 6.58397 12.184 5.01474C11.8147 2.36859 9.6609 0.27628 6.98398 0.0301256C3.35321 -0.339105 0.276287 2.73782 0.645518 6.39936C0.891672 9.04551 2.98398 11.2301 5.63013 11.5994C7.19936 11.8147 8.67629 11.384 9.84552 10.5532L13.9378 14.6455C14.1224 14.8301 14.3994 14.8301 14.584 14.6455L15.2301 13.9994C15.4147 13.8147 15.4147 13.507 15.2609 13.3224ZM2.4605 5.81509C2.4605 3.63047 4.24512 1.84586 6.42973 1.84586C8.61435 1.84586 10.399 3.63047 10.399 5.81509C10.399 7.99971 8.61435 9.78432 6.42973 9.78432C4.24512 9.78432 2.4605 8.03047 2.4605 5.81509Z" fill="white"/>
</svg>
