<svg width="32" height="54" viewBox="0 0 32 54" fill="none" xmlns="http://www.w3.org/2000/svg">
<path d="M17.3864 10.4476C18.1154 9.93456 19.6274 10.5016 20.7074 11.7436C21.7874 12.9856 22.0844 14.4166 21.3554 14.9566C20.8964 15.2536 20.2484 15.1456 19.8434 14.6866C19.6544 14.4706 19.5194 14.2006 19.5194 13.9576C19.5194 13.7686 19.4924 13.6066 19.4384 13.4446C19.3034 13.0936 19.0334 12.7696 18.7094 12.5536C18.4934 12.4186 18.2774 12.3376 18.0344 12.2836C17.7644 12.2296 17.5484 12.0946 17.3594 11.8786C16.9544 11.3926 16.9813 10.7986 17.3864 10.4476ZM15.6314 3.02256C8.66535 3.02256 3.02235 8.66556 3.02235 15.6316C3.02235 22.5976 8.66535 28.2406 15.6314 28.2406C22.5974 28.2406 28.2404 22.5976 28.2404 15.6316C28.2404 8.66556 22.5974 3.02256 15.6314 3.02256ZM15.6314 2.13156C23.0834 2.13156 29.1314 8.17956 29.1314 15.6316C29.1314 23.0836 23.0834 29.1316 15.6314 29.1316C8.17935 29.1316 2.13135 23.0836 2.13135 15.6316C2.13135 8.17956 8.17935 2.13156 15.6314 2.13156ZM14.3083 5.77656C15.6313 5.91156 16.7383 6.64056 16.7383 7.36956C16.7113 7.80156 16.3334 8.09856 15.8474 8.04456C15.6044 8.01756 15.4153 7.93656 15.2533 7.77456C15.1183 7.63956 14.9564 7.53156 14.7674 7.45056C14.4704 7.31556 14.1464 7.28856 13.8494 7.36956C13.7144 7.39656 13.5794 7.47756 13.4713 7.55856C13.3094 7.69356 13.0663 7.72056 12.8504 7.69356C12.3644 7.63956 11.9864 7.26156 11.9594 6.82956C11.9054 6.10056 12.9853 5.61456 14.3083 5.77656ZM15.4694 13.8766C15.5774 14.0116 15.7123 14.1196 15.8474 14.2006C16.0633 14.3356 16.1984 14.5516 16.2794 14.8486C16.4414 15.3886 16.1984 16.0096 15.7124 16.2256C14.9024 16.5496 13.8764 15.5776 13.4444 14.0116C13.0124 12.4996 13.3094 10.9606 14.0924 10.6366C14.5784 10.4746 15.0913 10.7716 15.2533 11.3116C15.3343 11.5816 15.3343 11.8516 15.2533 12.0946C15.1723 12.3106 15.1184 12.5266 15.1184 12.7696C15.1184 13.2016 15.2534 13.5796 15.4694 13.8766ZM9.79935 8.44956C10.2313 8.31456 10.7443 8.55756 10.9604 8.98956C11.0683 9.20556 11.1223 9.44856 11.0683 9.66456C11.0413 9.82656 11.0413 9.98856 11.0413 10.1236C11.0683 10.4476 11.2033 10.7446 11.4463 11.0146C11.5813 11.1496 11.7433 11.2846 11.9323 11.3656C12.1483 11.4736 12.2833 11.6356 12.3913 11.8516C12.6073 12.3106 12.4724 12.7966 12.0403 12.9586C11.3383 13.2286 10.2313 12.4186 9.61035 11.1496C9.01635 9.96156 9.09735 8.71956 9.79935 8.44956ZM6.96435 16.2796C6.88335 16.4416 6.85635 16.6306 6.85635 16.7926C6.85635 17.0356 6.69435 17.2786 6.50535 17.4946C6.07335 17.9266 5.42535 17.9806 4.99335 17.6836C4.26435 17.1436 4.64235 15.7126 5.80335 14.5246C6.96435 13.3636 8.50335 12.8776 9.20535 13.4176C9.61035 13.7686 9.58335 14.3896 9.17835 14.7946C8.96235 15.0106 8.74635 15.1456 8.47635 15.1726C8.23335 15.1996 8.01735 15.2806 7.80135 15.3886C7.39635 15.6316 7.09935 15.9286 6.96435 16.2796ZM12.3644 24.5956C12.0134 25.0546 11.4193 25.0816 10.9604 24.6226C10.7443 24.4066 10.5823 24.1366 10.5553 23.8396C10.5013 23.5696 10.4203 23.2996 10.3123 23.0836C10.0963 22.6786 9.79935 22.3816 9.42135 22.2196C9.23235 22.1386 9.07035 22.1116 8.88135 22.1116C8.63835 22.1116 8.36835 21.9496 8.15235 21.7336C7.69335 21.2746 7.61235 20.5186 7.90935 20.0056C8.44935 19.1956 9.90735 19.5736 11.1494 20.8156C12.3913 22.0576 12.9044 23.7856 12.3644 24.5956ZM13.4713 20.1406C13.2283 19.9786 13.0663 19.7896 12.9583 19.5466C12.8773 19.3306 12.7693 19.1146 12.6073 18.9256C12.3373 18.6286 12.0134 18.4126 11.6354 18.3316C11.4464 18.3046 11.2843 18.3046 11.1223 18.3316C10.8793 18.3856 10.6093 18.2776 10.3663 18.1156C9.88035 17.7916 9.66435 17.1706 9.88035 16.6846C10.2853 15.9016 11.7433 15.9826 13.0933 16.8466C14.4433 17.7106 15.2533 19.0876 14.8483 19.8706C14.5783 20.3296 13.9573 20.4646 13.4713 20.1406ZM17.6294 25.7836C17.0354 26.2966 15.8744 25.7296 15.0644 24.5686C14.2543 23.4076 14.0924 22.0036 14.6864 21.5176C15.0374 21.2476 15.5773 21.3556 15.8474 21.7606C15.9823 21.9766 16.0634 22.1926 16.0634 22.4086C16.0634 22.6246 16.0634 22.8136 16.1444 23.0296C16.2524 23.3536 16.4683 23.6506 16.7383 23.8396C16.8734 23.9206 17.0084 23.9746 17.1704 24.0286C17.3864 24.0826 17.5754 24.2446 17.7104 24.4606C18.0344 24.8926 17.9804 25.4866 17.6294 25.7836ZM17.7104 16.2526C17.8724 15.9016 18.2774 15.7936 18.6554 15.9826C18.8444 16.0906 18.9794 16.1986 19.0604 16.3876C19.1414 16.5496 19.2224 16.6846 19.3574 16.7926C19.5734 16.9816 19.8164 17.1166 20.0864 17.1436C20.2214 17.1706 20.3294 17.1436 20.4644 17.1166C20.6264 17.0626 20.8424 17.1166 21.0314 17.2246C21.4094 17.4136 21.5984 17.8456 21.4904 18.2236C21.2474 18.8176 20.2213 18.8716 19.1684 18.3316C18.1693 17.7916 17.4944 16.8736 17.7104 16.2526ZM22.0034 24.5686C21.5984 24.8656 21.0584 24.7306 20.7614 24.2716C20.6264 24.0556 20.5454 23.8126 20.5454 23.5426C20.5723 23.3266 20.5454 23.0836 20.4914 22.8676C20.3834 22.5166 20.1674 22.1926 19.8974 21.9766C19.7624 21.8686 19.6004 21.8146 19.4384 21.7876C19.2224 21.7336 19.0064 21.5446 18.8714 21.3286C18.5744 20.8696 18.6284 20.2216 19.0064 19.8976C19.6544 19.3576 20.8694 19.9786 21.7064 21.2746C22.4894 22.5166 22.6514 24.0286 22.0034 24.5686ZM22.9484 9.90756C22.6784 10.3666 22.0574 10.4476 21.5714 10.1236C21.3284 9.96156 21.1664 9.74556 21.0854 9.50256C21.0044 9.28656 20.8964 9.04356 20.7614 8.85456C20.5184 8.53056 20.1674 8.31456 19.7894 8.23356C19.6004 8.17956 19.4384 8.17956 19.2494 8.20656C19.0064 8.23356 18.7364 8.15256 18.4934 7.96356C18.0074 7.61256 17.8184 6.96456 18.0614 6.50556C18.4934 5.72256 19.9784 5.85756 21.3284 6.80256C22.6514 7.69356 23.3804 9.09756 22.9484 9.90756ZM25.8644 18.4126C25.3784 18.6286 24.8384 18.3856 24.6224 17.8186C24.5144 17.5486 24.4874 17.2786 24.5684 17.0086C24.6494 16.7926 24.6764 16.5496 24.6494 16.3066C24.6224 15.9016 24.4604 15.5236 24.1904 15.2536C24.0554 15.1186 23.9204 15.0106 23.7584 14.9296C23.5424 14.8216 23.3533 14.5786 23.2453 14.3086C23.0294 13.7416 23.2454 13.1206 23.7044 12.8506C24.5144 12.4456 25.6754 13.3636 26.2694 14.9296C26.8364 16.4146 26.6744 18.0076 25.8644 18.4126Z" fill="#EB008B"/>
<circle cx="15.6316" cy="15.6316" r="14.9022" stroke="#EB008B" stroke-width="1.45873"/>
<path d="M12.8082 31.282H18.4548V51.0825C18.4548 52.291 17.4751 53.2706 16.2667 53.2706H14.9963C13.7879 53.2706 12.8082 52.291 12.8082 51.0825L12.8082 31.282Z" stroke="#EB008B" stroke-width="1.45873"/>
</svg>
